<svg xmlns="http://www.w3.org/2000/svg" width="96" height="96" viewBox="0 0 96 96">
  <defs>
    <filter id="360zip-a" width="128.6%" height="129.6%" x="-14.3%" y="-14.8%" filterUnits="objectBoundingBox">
      <feOffset dy="2" in="SourceAlpha" result="shadowOffsetOuter1"/>
      <feGaussianBlur in="shadowOffsetOuter1" result="shadowBlurOuter1" stdDeviation="2"/>
      <feComposite in="shadowBlurOuter1" in2="SourceAlpha" operator="out" result="shadowBlurOuter1"/>
      <feColorMatrix in="shadowBlurOuter1" result="shadowMatrixOuter1" values="0 0 0 0 0   0 0 0 0 0   0 0 0 0 0  0 0 0 0.2 0"/>
      <feMerge>
        <feMergeNode in="shadowMatrixOuter1"/>
        <feMergeNode in="SourceGraphic"/>
      </feMerge>
    </filter>
    <linearGradient id="360zip-b" x1="50%" x2="50%" y1="0%" y2="100%">
      <stop offset="0%" stop-color="#9EF203"/>
      <stop offset="100%" stop-color="#55A600"/>
    </linearGradient>
    <linearGradient id="360zip-c" x1="50%" x2="50%" y1="0%" y2="100%">
      <stop offset="0%" stop-color="#FDC400"/>
      <stop offset="100%" stop-color="#EE8A00"/>
    </linearGradient>
    <linearGradient id="360zip-d" x1="50%" x2="50%" y1="0%" y2="100%">
      <stop offset="0%" stop-color="#44C9FF"/>
      <stop offset="100%" stop-color="#0089EC"/>
    </linearGradient>
    <linearGradient id="360zip-e" x1="50%" x2="50%" y1="0%" y2="100%">
      <stop offset="0%" stop-color="#ECC348"/>
      <stop offset="100%" stop-color="#C77C08"/>
    </linearGradient>
    <linearGradient id="360zip-f" x1="50%" x2="50%" y1="0%" y2="100%">
      <stop offset="0%" stop-color="#ECC348"/>
      <stop offset="100%" stop-color="#C77C08"/>
    </linearGradient>
  </defs>
  <g fill="none" fill-rule="evenodd" filter="url(#360zip-a)" transform="translate(6 7)">
    <rect width="84" height="51" y="29" fill="url(#360zip-b)" rx="8"/>
    <rect width="84" height="51" y="19" fill="url(#360zip-c)" rx="8"/>
    <path fill="url(#360zip-d)" d="M14.3181818,3.80645161 L15.1205027,2.20673958 C15.7989439,0.854025767 17.1826918,2.77991142e-16 18.6960051,0 L35.7130858,8.8817842e-16 C37.2263991,6.10187278e-16 38.610147,0.854025767 39.2885882,2.20673958 L40.0909091,3.80645161 C41.2611666,6.13977618 43.6480225,7.61290323 46.2583685,7.61290323 L76,7.61290323 C80.418278,7.61290323 84,11.1946252 84,15.6129032 L84,51 C84,55.418278 80.418278,59 76,59 L8,59 C3.581722,59 5.41083001e-16,55.418278 0,51 L1.77635684e-15,13.8174487 C1.35671008e-15,10.3907728 2.77786962,7.61290323 6.20454545,7.61290323 L8.15072244,7.61290323 C10.7610684,7.61290323 13.1479243,6.13977618 14.3181818,3.80645161 Z"/>
    <path fill="#0067B1" fill-rule="nonzero" d="M13.40625,23.8515625 C13.40625,24.1171888 13.3658858,24.3710925 13.2851562,24.6132812 C13.2044267,24.85547 13.0885424,25.0755198 12.9375,25.2734375 C13.0781257,25.4661468 13.1861975,25.6757801 13.2617188,25.9023438 C13.33724,26.1289074 13.375,26.3697904 13.375,26.625 C13.375,26.9531266 13.3125006,27.2617173 13.1875,27.5507812 C13.0624994,27.8398452 12.8932302,28.0911448 12.6796875,28.3046875 C12.4661448,28.5182302 12.2148452,28.6874994 11.9257812,28.8125 C11.6367173,28.9375006 11.3281266,29 11,29 C10.7499987,29 10.5104178,28.9661462 10.28125,28.8984375 C10.0520822,28.8307288 9.83984473,28.7343756 9.64453125,28.609375 C9.44921777,28.4843744 9.27734449,28.3320321 9.12890625,28.1523438 C8.98046801,27.9726554 8.86458375,27.7734386 8.78125,27.5546875 L9.53125,27.1328125 C9.65104227,27.3880221 9.79687414,27.5976554 9.96875,27.7617188 C10.1406259,27.9257821 10.3268219,28.0416663 10.5273438,28.109375 C10.7278656,28.1770837 10.9374989,28.1901044 11.15625,28.1484375 C11.3750011,28.1067706 11.5937489,28.0078133 11.8125,27.8515625 L11.8125,25.625 L10.125,25.625 L10.125,24.765625 L11.8125,24.765625 L11.8125,22.609375 C11.6927077,22.5156245 11.5468759,22.4427086 11.375,22.390625 C11.2031241,22.3385414 11.0208343,22.3242186 10.828125,22.3476562 C10.6354157,22.3710939 10.4427093,22.4388015 10.25,22.5507812 C10.0572907,22.662761 9.88020914,22.8333322 9.71875,23.0625 L9.0390625,22.5625 C9.25260523,22.2343734 9.53255035,21.9713552 9.87890625,21.7734375 C10.2252621,21.5755198 10.6093729,21.4765625 11.03125,21.4765625 C11.3593766,21.4765625 11.6679673,21.5390619 11.9570312,21.6640625 C12.2460952,21.7890631 12.4973948,21.9583323 12.7109375,22.171875 C12.9244802,22.3854177 13.0937494,22.6367173 13.21875,22.9257812 C13.3437506,23.2148452 13.40625,23.5234359 13.40625,23.8515625 Z M19.6953125,26.765625 C19.6953125,27.0937516 19.6341152,27.4010402 19.5117188,27.6875 C19.3893223,27.9739598 19.2200532,28.2239573 19.0039062,28.4375 C18.7877593,28.6510427 18.5364598,28.8190098 18.25,28.9414062 C17.9635402,29.0638027 17.6562516,29.125 17.328125,29.125 C16.9999984,29.125 16.6927098,29.0638027 16.40625,28.9414062 C16.1197902,28.8190098 15.8697927,28.6510427 15.65625,28.4375 C15.4427073,28.2239573 15.2747402,27.9739598 15.1523438,27.6875 C15.0299473,27.4010402 14.96875,27.0937516 14.96875,26.765625 L14.96875,23.7578125 C14.96875,23.4713527 15.042968,23.1953138 15.1914062,22.9296875 C15.3398445,22.6640612 15.5364571,22.4309906 15.78125,22.2304688 C16.0260429,22.0299469 16.305988,21.8723964 16.6210938,21.7578125 C16.9361995,21.6432286 17.2578109,21.5924479 17.5859375,21.6054688 C17.9140641,21.6184896 18.2382796,21.7083325 18.5585938,21.875 C18.8789079,22.0416675 19.1666654,22.3046857 19.421875,22.6640625 C19.3802081,22.6953127 19.3281253,22.7317706 19.265625,22.7734375 C19.2031247,22.8151044 19.1380212,22.8580727 19.0703125,22.9023438 C19.0026038,22.9466148 18.9361982,22.9908852 18.8710938,23.0351562 C18.8059893,23.0794273 18.7473961,23.1171873 18.6953125,23.1484375 C18.601562,22.9609366 18.471355,22.8125005 18.3046875,22.703125 C18.13802,22.5937495 17.9570322,22.5221356 17.7617188,22.4882812 C17.5664053,22.4544269 17.3671885,22.4570311 17.1640625,22.4960938 C16.9609365,22.5351564 16.7734384,22.6119786 16.6015625,22.7265625 L16.6015625,24.5 C16.710938,24.4635415 16.8294264,24.4375001 16.9570312,24.421875 C17.0846361,24.4062499 17.2083327,24.3984375 17.328125,24.3984375 C17.6562516,24.3984375 17.9635402,24.4596348 18.25,24.5820312 C18.5364598,24.7044277 18.7877593,24.8736968 19.0039062,25.0898438 C19.2200532,25.3059907 19.3893223,25.5572902 19.5117188,25.84375 C19.6341152,26.1302098 19.6953125,26.4374984 19.6953125,26.765625 Z M18.8359375,26.765625 C18.8359375,26.562499 18.7955733,26.3697926 18.7148438,26.1875 C18.6341142,26.0052074 18.5247403,25.8450528 18.3867188,25.7070312 C18.2486972,25.5690097 18.0885426,25.4596358 17.90625,25.3789062 C17.7239574,25.2981767 17.531251,25.2578125 17.328125,25.2578125 C17.2083327,25.2578125 17.083334,25.2747394 16.953125,25.3085938 C16.822916,25.3424481 16.7057297,25.3880205 16.6015625,25.4453125 L16.6015625,28.0859375 C16.7057297,28.1432295 16.822916,28.1874998 16.953125,28.21875 C17.083334,28.2500002 17.2083327,28.265625 17.328125,28.265625 C17.531251,28.265625 17.7239574,28.2252608 17.90625,28.1445312 C18.0885426,28.0638017 18.2486972,27.9544278 18.3867188,27.8164062 C18.5247403,27.6783847 18.6341142,27.5195321 18.7148438,27.3398438 C18.7955733,27.1601554 18.8359375,26.968751 18.8359375,26.765625 Z M25.984375,26.640625 C25.984375,26.9687516 25.9231777,27.2760402 25.8007812,27.5625 C25.6783848,27.8489598 25.5091157,28.0989573 25.2929688,28.3125 C25.0768218,28.5260427 24.8255223,28.6940098 24.5390625,28.8164062 C24.2526027,28.9388027 23.9453141,29 23.6171875,29 C23.2890609,29 22.9817723,28.9388027 22.6953125,28.8164062 C22.4088527,28.6940098 22.1588552,28.5260427 21.9453125,28.3125 C21.7317698,28.0989573 21.5638027,27.8489598 21.4414062,27.5625 C21.3190098,27.2760402 21.2578125,26.9687516 21.2578125,26.640625 L21.2578125,23.84375 C21.2578125,23.5156234 21.3190098,23.2083348 21.4414062,22.921875 C21.5638027,22.6354152 21.7317698,22.3854177 21.9453125,22.171875 C22.1588552,21.9583323 22.4088527,21.7903652 22.6953125,21.6679688 C22.9817723,21.5455723 23.2890609,21.484375 23.6171875,21.484375 C23.9453141,21.484375 24.2526027,21.5455723 24.5390625,21.6679688 C24.8255223,21.7903652 25.0768218,21.9583323 25.2929688,22.171875 C25.5091157,22.3854177 25.6783848,22.6354152 25.8007812,22.921875 C25.9231777,23.2083348 25.984375,23.5156234 25.984375,23.84375 L25.984375,26.640625 Z M24.3515625,22.5234375 C24.2473953,22.4661455 24.130209,22.4218752 24,22.390625 C23.869791,22.3593748 23.7421881,22.34375 23.6171875,22.34375 C23.4973952,22.34375 23.3723965,22.3593748 23.2421875,22.390625 C23.1119785,22.4218752 22.9947922,22.4661455 22.890625,22.5234375 L22.890625,27.9609375 C22.9947922,28.0130211 23.1119785,28.0559894 23.2421875,28.0898438 C23.3723965,28.1236981 23.4973952,28.140625 23.6171875,28.140625 C23.7421881,28.140625 23.869791,28.1250002 24,28.09375 C24.130209,28.0624998 24.2473953,28.0182295 24.3515625,27.9609375 L24.3515625,22.5234375 Z M8.828125,44 L8.828125,42.359375 L14.578125,34.0234375 L9.15625,34.0234375 L9.15625,32.4375 L17.375,32.4375 L17.375,34.0234375 L11.625,42.359375 L17.375,42.359375 L17.375,44 L8.828125,44 Z M19.7578125,44 L19.7578125,32.4375 L22.1640625,32.4375 L22.1640625,44 L19.7578125,44 Z M25.0625,44 L25.0625,32.4375 L29.09375,32.4375 C30.500007,32.4375 31.5039032,32.6731747 32.1054688,33.1445312 C32.7070343,33.6158878 33.0078125,34.4036403 33.0078125,35.5078125 C33.0078125,36.7578187 32.6054728,37.7304653 31.8007812,38.4257812 C30.9960897,39.1210972 29.8697989,39.46875 28.421875,39.46875 L27.421875,39.46875 L27.421875,44 L25.0625,44 Z M27.421875,37.8828125 L27.890625,37.8828125 C28.7135458,37.8828125 29.3632789,37.6914082 29.8398438,37.3085938 C30.3164086,36.9257793 30.5546875,36.4062533 30.5546875,35.75 C30.5546875,34.5989526 29.822924,34.0234375 28.359375,34.0234375 L27.421875,34.0234375 L27.421875,37.8828125 Z"/>
    <rect width="16" height="74" x="55" y="7" fill="#923707" rx="2"/>
    <circle cx="63" cy="18" r="2" fill="#782900"/>
    <circle cx="63" cy="30" r="2" fill="#782900"/>
    <circle cx="63" cy="42" r="2" fill="#782900"/>
    <path fill="url(#360zip-e)" fill-rule="nonzero" stroke="#000" stroke-opacity=".1" d="M55,52.5 L71,52.5 C73.4852814,52.5 75.5,54.5147186 75.5,57 L75.5,71 C75.5,73.4852814 73.4852814,75.5 71,75.5 L55,75.5 C52.5147186,75.5 50.5,73.4852814 50.5,71 L50.5,57 C50.5,54.5147186 52.5147186,52.5 55,52.5 Z M55,55.5 C54.1715729,55.5 53.5,56.1715729 53.5,57 L53.5,71 C53.5,71.8284271 54.1715729,72.5 55,72.5 L71,72.5 C71.8284271,72.5 72.5,71.8284271 72.5,71 L72.5,57 C72.5,56.1715729 71.8284271,55.5 71,55.5 L55,55.5 Z"/>
    <rect width="3" height="15" x="61.5" y="52.5" fill="url(#360zip-f)" fill-rule="nonzero" stroke="#000" stroke-opacity=".1"/>
  </g>
</svg>
