<svg xmlns="http://www.w3.org/2000/svg" xmlns:xlink="http://www.w3.org/1999/xlink" width="96" height="96" viewBox="0 0 96 96">
  <defs>
    <radialGradient id="植物大战僵尸-c" cx="54.661%" cy="55.267%" r="59.422%" fx="54.661%" fy="55.267%">
      <stop offset="0%" stop-color="#AADE37"/>
      <stop offset="50.402%" stop-color="#B0E40E"/>
      <stop offset="100%" stop-color="#3D8B17"/>
    </radialGradient>
    <rect id="植物大战僵尸-b" width="76" height="76" x="10" y="10" rx="8"/>
    <filter id="植物大战僵尸-a" width="126.3%" height="126.3%" x="-13.2%" y="-10.5%" filterUnits="objectBoundingBox">
      <feMorphology in="SourceAlpha" operator="dilate" radius="3" result="shadowSpreadOuter1"/>
      <feOffset dy="2" in="shadowSpreadOuter1" result="shadowOffsetOuter1"/>
      <feGaussianBlur in="shadowOffsetOuter1" result="shadowBlurOuter1" stdDeviation="2"/>
      <feComposite in="shadowBlurOuter1" in2="SourceAlpha" operator="out" result="shadowBlurOuter1"/>
      <feColorMatrix in="shadowBlurOuter1" values="0 0 0 0 0   0 0 0 0 0   0 0 0 0 0  0 0 0 0.2 0"/>
    </filter>
    <linearGradient id="植物大战僵尸-d" x1="50%" x2="50%" y1="0%" y2="100%">
      <stop offset="0%" stop-color="#EF9005"/>
      <stop offset="100%" stop-color="#DA5702"/>
    </linearGradient>
  </defs>
  <g fill="none" fill-rule="evenodd">
    <use fill="#000" filter="url(#植物大战僵尸-a)" xlink:href="#植物大战僵尸-b"/>
    <rect width="79" height="79" x="8.5" y="8.5" fill="url(#植物大战僵尸-c)" stroke="#0C3907" stroke-width="3" rx="8"/>
    <g transform="translate(8 7)">
      <path fill="#020202" d="M80.0211086,50.9506039 L80.0211086,70.8099789 C79.3981008,73.2017523 78.4784836,75.4455414 76.7987648,77.3142445 C74.3957805,79.987893 71.4553117,81.6365414 67.8492336,82.0209164 L51.5132961,82.0209164 C50.1183352,79.8402289 47.7531477,78.6579555 46.087843,76.753057 C45.6775227,76.2834789 45.0612414,75.9836664 44.939843,75.287307 C44.950093,75.1172211 45.0173586,74.9753227 45.1413195,74.8590492 C45.3716242,74.7373305 45.6160227,74.7129867 45.8700305,74.7434164 C47.0436555,74.888518 48.2012648,75.1611039 49.3912258,75.1803227 C52.0485383,75.4548305 54.6270539,76.2011586 57.2827648,76.4830336 C61.1998664,77.2674789 65.142593,77.9151508 69.0661008,78.6592367 C71.1756789,78.628807 71.6933039,78.1870961 71.9248898,76.2050023 C72.0334758,75.2738539 72.3188742,74.3609633 72.2173352,73.4067523 C72.2179758,73.0736273 72.245843,72.7430648 72.3002961,72.4153852 C72.4892805,71.7036508 72.5475773,70.9723773 72.6177258,70.2436664 C72.840343,69.0597914 73.2817336,67.8320336 71.9444289,66.9681508 C69.2807102,66.2999789 66.6025773,65.8512211 63.8498117,66.293893 C63.1982961,66.3989555 62.5003352,66.4803148 62.2501711,65.6955492 C62.0333195,65.016807 62.5000148,64.5385805 63.092593,64.3665727 C65.491093,63.6708539 67.3114289,61.9898539 69.3889758,60.7534477 C71.0590852,59.3264555 72.6500773,57.8225883 74.0799523,56.1438305 C74.444468,55.7155727 74.4800227,55.1851352 74.7913664,54.7690492 C75.8301398,53.7985023 76.3874836,52.5854789 76.5835148,51.1940414 C76.6283586,50.8737289 76.668718,50.5630258 77.0351555,50.437143 C78.056632,50.4611664 79.107257,50.3093383 80.0211086,50.9506039"/>
      <path fill="#A1B59C" d="M34.2164211,82.0209164 L24.2867336,82.0209164 C24.479882,80.468682 25.7547258,79.6711039 26.6570461,78.6121508 C28.0097258,77.2412133 29.815007,76.2956508 30.6058586,74.395557 C31.1135539,73.7267445 31.7749992,73.3301977 32.6206242,73.2738227 C33.8147492,73.1947055 34.5107883,72.5704164 34.9438508,71.4477211 C35.5534055,69.865057 36.3887805,68.3986664 37.502507,67.0850648 C38.6194367,65.7682602 39.844632,65.0136039 41.6502336,65.5504477 C42.2434523,65.7269398 42.8981711,65.7583305 43.5205383,65.8848539 C44.2005617,65.9412289 44.7771242,66.2772367 45.3709836,66.5687211 C45.9235227,66.8592445 46.3972648,67.1994164 46.205718,67.9415805 C45.7829055,68.6177602 45.160218,68.6039867 44.5253586,68.368557 C43.657632,68.0463227 42.7633195,68.0575336 41.8616398,68.0136508 C40.8020461,67.9620805 40.0371398,68.3502992 39.4416789,69.2237914 C38.6059836,70.449307 37.5662492,71.5383695 36.8561164,72.8458852 C35.8868508,74.6306664 34.4499289,75.7424711 32.4777648,76.1784164 C32.4156242,76.2421586 32.2538664,76.3068617 32.2621945,76.3084633 C34.5415383,76.681307 36.6866711,76.0032055 38.8151477,75.3699477 C40.3311867,74.9189477 41.8395383,74.801393 43.3933742,74.9452133 C43.5484055,74.9740414 43.6957492,75.0230492 43.8395695,75.0861508 C44.7418898,75.6636742 45.4094211,76.4971273 46.1579914,77.2389711 C47.9876164,79.0512992 47.9818508,79.3126742 46.2242961,81.2265414 C45.559968,81.7073305 45.1631008,81.242557 44.7547023,80.8098148 C44.0288742,80.0404242 43.2694133,79.3046664 42.5202023,78.558018 C41.4324211,77.4740805 40.2594367,77.1210961 38.8068195,77.8936898 C37.9730461,78.337643 37.0278039,78.568268 36.2369523,79.1179242 C34.9842102,79.8424711 33.730507,80.1301117 32.439007,79.1835883 C32.188843,79.0000492 31.8563586,78.9603305 31.5418117,79.0987055 C31.2042023,79.2300336 30.9466711,79.4914086 30.7781867,79.583018 C31.2256633,79.2543773 31.8467492,79.0128617 32.5668117,79.3251664 C33.3906555,79.9542602 34.2414055,80.0602836 35.2436633,79.694807 C36.4845539,79.2428461 37.7875852,78.9648148 39.0816477,78.6922289 C41.1758508,78.2508383 42.5784992,79.9247914 41.9039211,82.0209164 L39.0211086,82.0209164 C37.4195461,80.4427367 35.8179836,81.4312211 34.2164211,82.0209164"/>
      <path fill="#2B3C22" d="M78.7309219,26.9101258 C78.8510391,27.6510086 79.0694922,28.2938758 80.0211406,28.2086727 L80.0211406,29.4899227 C79.098,29.7714773 78.2600625,30.1520086 77.729625,31.0434383 C77.5153359,31.4034695 77.1104609,31.6536336 76.7158359,31.8032195 C74.5258594,32.6350711 72.4281328,33.6895398 70.2243828,34.486157 C69.5667812,34.3202352 69.1446094,33.5553289 68.3463906,33.7478367 C68.069,33.7628914 67.8124297,33.8381648 67.5862891,34.0076102 C67.1167109,34.2251023 66.7941562,35.0370945 66.1067656,34.3801336 C66.4671172,31.9316648 67.3441328,31.3000086 69.5917656,31.9102039 C70.1097109,32.0508211 70.6148437,32.2100164 71.1395156,32.0280789 C72.7346719,31.4755398 74.2465469,30.709993 75.8525937,30.181157 C76.1498437,30.0831414 76.3119219,29.7589852 76.4362031,29.4604539 C76.5726562,29.1728133 76.7680469,28.9188055 76.9205156,28.6398133 C77.0540859,28.3954148 77.1303203,28.1263523 76.9336484,27.9008523 C76.6754766,27.6045633 76.2991094,27.6567742 76.0780937,27.8829148 C74.5370703,29.4591727 73.1075156,28.6904227 71.6721953,27.7230789 C71.4524609,27.5750945 71.2144687,27.4559383 70.9755156,27.3403055 C67.0052422,25.4216336 66.02925,25.6394461 63.3037109,29.0610242 C62.9734687,29.4755086 62.6851875,29.9277898 62.3024141,30.294868 C61.6409687,30.9284461 61.7444297,31.4813055 62.4311797,32.0037352 C63.2825703,33.3775555 63.2322812,34.3670008 62.2841562,35.6437664 C61.5573672,36.6226414 60.6668984,36.7549305 59.6213984,36.2209695 C59.0835937,35.850368 58.5547578,35.4666336 58.1687812,34.9240242 C58.1735859,34.5261961 58.4490547,34.4031961 58.7725703,34.3292039 C59.0992891,34.2910867 59.4109531,34.363157 59.6889844,34.527157 C60.3555547,34.9198602 60.9875312,35.1367117 61.3549297,34.1844227 C61.7207266,33.2362977 61.2335312,32.7929852 60.3574766,32.6184148 C60.2018047,32.5873445 60.0426094,32.5729305 59.8846953,32.5444227 C59.5803984,32.461782 59.3094141,32.3272508 59.1233125,32.0591492 C59.0268984,31.535118 59.3702734,31.1738055 59.5954531,30.7673289 C60.4225,29.7269539 61.1531328,28.598493 62.0503281,27.628907 C63.0048594,26.5971805 62.9414375,25.554243 62.5269531,24.3863836 C61.5118828,21.5279148 60.3939922,18.7158914 58.9093437,16.0598602 C58.6156172,15.5342273 58.0880625,15.011157 58.5698125,14.315118 C58.9394531,14.0694383 59.3340781,14.0655945 59.7418359,14.1917977 C60.4218594,14.4877664 60.7620312,15.0925164 61.0759375,15.7065555 C62.3280391,18.1569461 63.6035234,20.5967664 64.4334531,23.2371023 C64.6125078,23.8072586 64.6631172,24.5814539 65.6227734,24.3341727 C65.8614062,24.2970164 66.1003594,24.2787586 66.3412344,24.2723523 C66.8412422,24.2553758 67.3367656,24.2838836 67.8262031,24.3892664 C69.5677422,24.6407117 71.2122266,25.1785164 72.7439609,26.0497664 C74.3862031,27.2153836 75.556625,26.7076883 75.7215859,24.6929227 C75.8391406,23.2614461 75.7491328,21.8193992 75.7398437,20.3802352 C75.7247891,19.7761258 75.7078125,19.1732977 75.730875,18.5698289 C75.7456094,17.9288836 75.6831484,17.2885789 75.7238281,16.6476336 C75.7715547,16.1751727 75.7856484,15.6902195 76.1882812,15.3455633 C77.0979687,15.615907 76.9323672,16.4086805 76.9551094,17.0505867 C77.0150078,18.7469617 77.0928437,20.4561492 76.9461406,22.140993 C76.7782969,24.0683133 77.2520391,25.6503367 78.7309219,26.9101258 Z M34.857975,3.50777422 C30.5209438,3.92930547 26.5167172,5.50780547 22.5403578,7.13339141 C18.4768734,8.79485234 14.7513188,11.0293523 11.5815063,14.1130008 C11.2137875,14.4704695 10.6823891,14.7363289 10.7736781,15.3894461 C10.0741156,15.4403758 9.62663906,15.1376805 9.45174844,14.4496492 C9.7582875,13.6549539 10.5353656,13.2142039 10.9290297,12.4835711 C13.8397094,9.79935234 17.2750609,7.92103984 20.7917719,6.20064141 C22.1159438,5.55264922 23.4596547,4.90786016 24.8639047,4.42258672 C25.9542484,4.17018047 26.9862953,3.73679766 28.0500531,3.40111016 C30.1782094,3.11955547 32.1497328,2.18424297 34.2794906,1.91197734 C34.8980141,2.29026641 34.8832797,3.00776641 35.1661156,3.56575078 C35.0632953,3.54653203 34.9607953,3.52731328 34.857975,3.50777422 Z M45.0455781,2.61612031 C46.1628281,3.11516719 47.2797578,3.61421406 48.3970078,4.11294063 C49.2176484,3.820175 49.8028594,4.36758906 50.4120938,4.72569844 C51.4479844,5.3346125 52.473625,5.95922188 53.5469922,6.50343281 C53.5566016,7.26225313 53.3330234,7.85931563 52.4886797,8.02427656 C51.0946797,6.06844844 48.8044453,5.46081563 46.8707188,4.32466719 C46.2435469,3.95630781 45.4901719,3.80255781 44.7944531,3.55047188 C44.878375,3.23912813 44.9619766,2.92746406 45.0455781,2.61612031 Z M8.04557656,18.025682 C7.24159219,19.6269242 5.90268594,20.9331586 5.4532875,22.7294711 C4.88313125,22.731393 4.312975,22.7336352 3.74249844,22.735557 C4.12142813,20.486643 5.43214688,18.784182 6.977975,17.2181742 C7.55165469,17.1999164 7.89759219,17.4821117 8.04557656,18.025682 Z M4.83399531,23.7672195 C4.39837031,24.8021492 3.88939375,25.8117742 3.72699531,26.9424773 C3.27022969,27.2624695 2.78944063,27.368493 2.26765156,27.1067977 C1.5203625,25.8172195 2.51813594,24.8031102 2.81250313,23.6772117 C3.511425,23.1467742 4.13507344,24.3011805 4.83399531,23.7672195 Z M3.14751797,38.4645344 C3.82401797,39.0372531 4.55721328,39.5158 5.39611172,39.8194562 C5.16933047,40.10005 4.71833047,40.2147219 4.75484609,40.6891047 C4.10236953,41.1830266 3.69204922,40.5475266 3.18531484,40.3575812 C2.94219766,40.2195266 2.69876016,40.0811516 2.46653359,39.9245187 C2.18850234,39.79255 2.17504922,39.2592297 1.70130703,39.4229094 L1.55332266,39.4171437 C1.76729141,38.3597922 0.284564844,37.8927766 0.602955469,36.8572062 C1.12506484,35.1601906 0.620572656,33.4266594 0.898283594,31.7299641 C1.11225234,30.5563391 1.32590078,29.3823937 1.53986953,28.2087687 C1.98061953,27.5040812 2.52643203,27.3727531 3.19332266,27.9073547 C2.87236953,30.1210344 2.12668203,32.2652062 2.11643203,34.529175 C1.50943984,37.0333781 1.68144766,37.6896984 3.14751797,38.4645344 Z M59.1263555,13.4867258 C58.7013008,13.5754523 58.2762461,13.6644992 57.8508711,13.7532258 C56.6570664,11.6981008 55.3447461,9.75348359 53.1160117,8.66089766 C52.9247852,8.07280391 53.1967305,7.72206172 53.7121133,7.49528047 C54.2371055,7.38349141 54.6439023,7.63013203 55.003293,7.95845234 C56.4543086,9.28358516 57.827168,10.6820695 58.8928477,12.3464133 C59.1048945,12.6776164 59.4585195,13.0245148 59.1263555,13.4867258 Z"/>
      <path fill="#A2B69C" d="M70.0552898,34.2940656 C72.0646102,33.3517062 74.0370945,32.3289484 76.166532,31.6566125 C76.8753836,31.4327141 77.4849383,31.0083 77.8276727,30.2760656 C78.2853992,29.2978312 79.0137898,28.9816828 80.0211727,29.4896984 L80.0211727,31.0912609 C79.4952195,32.9714953 77.9791805,33.6114797 76.3071492,34.0608781 C76.0448133,34.1108469 75.7946492,34.1966906 75.5416023,34.2767687 C71.3288523,35.6127922 71.3358992,35.6118312 71.1600477,40.0033156 C71.1270555,40.8268391 71.2609461,41.7874562 70.0604148,41.98605 C69.5242117,42.0187219 69.0200398,41.8428703 68.509782,41.7304406 C67.9332195,41.6032766 67.5132898,41.2432453 67.664157,40.6119094 C68.0770398,38.8844641 67.7951648,37.019925 68.6939617,35.3904953 C69.0392586,34.8920891 69.4787273,34.5073937 70.0552898,34.2940656"/>
      <path fill="#313D26" d="M76.5034367,33.6657727 C77.9752727,33.2166945 79.1274367,32.3303898 80.0211086,31.0914211 L80.0211086,33.0132961 C78.8987336,34.3932023 77.2516867,34.9614367 75.7404523,35.7116086 C73.4162648,36.8650539 73.3650148,36.8801086 74.1795695,39.3369055 C74.6161555,40.6533898 74.9307023,42.0054289 75.3973977,43.3151867 C75.765757,44.3488352 76.1940148,45.0407102 77.4560461,44.525968 C77.837218,44.3702961 78.3003898,44.448132 78.7267258,44.4990617 C80.5348898,45.3994602 80.357757,47.0452258 78.189882,49.127257 C78.6389602,49.8620539 79.5342336,49.1407102 80.0211086,49.6695461 L80.0211086,50.9504758 C78.9682414,50.9556008 77.9108898,51.0161398 76.8852492,50.6891008 C76.7266945,50.7819914 76.5710227,50.7771867 76.4172727,50.675968 C76.0655695,50.2861477 75.9496164,49.7970305 75.838468,49.3056711 C75.7670383,48.8191164 75.7529445,48.3373664 75.9867727,47.8831633 C76.5905617,47.4696398 77.437468,47.7646477 77.9976945,47.1829602 C78.252343,46.9187023 78.6376789,46.7146633 78.4486945,46.2832023 C78.2609914,45.8539836 77.8442648,45.9494367 77.4823117,46.0090148 C77.0659055,46.0772414 76.6760852,46.2450852 76.2744133,46.3684055 C75.864093,46.4936477 75.4300695,46.5320852 75.0344836,46.7137023 C74.9053977,46.7867336 74.7743898,46.8523977 74.6437023,46.9215852 C73.9527883,47.1445227 73.587632,48.4331398 72.5623117,47.5609289 C73.9656008,45.3834445 73.4569445,43.1870617 72.6273352,40.9884367 C72.2503273,39.9881008 71.932257,38.9663039 71.7218117,37.9220852 C71.4296867,36.4717102 71.9018273,35.5943742 73.2448977,34.9415773 C74.2964836,34.4306789 75.4220617,34.1029992 76.5034367,33.6657727"/>
      <path fill="#A1B59B" d="M78.6934133,44.8097648 C77.6770617,44.8056008 76.6978664,44.9993898 75.7215539,45.4699289 C74.8868195,42.9093508 74.1212727,40.4256477 73.2577102,37.9765383 C72.912093,36.9960617 73.2320852,36.4982961 74.0748273,36.0761242 C76.068132,35.0777102 78.0402961,34.0370148 80.0211086,33.0132961 L80.0211086,34.2945461 C79.4112336,35.2468352 78.3420305,35.5773977 77.4739836,36.1808664 C76.4102258,36.602718 76.2468664,37.3461633 76.6309211,38.3548273 C77.2696242,40.0319836 78.0966711,41.634507 78.6248664,43.3539445 C78.7686867,43.822882 79.194382,44.3017492 78.6934133,44.8097648"/>
      <path fill="#67765C" d="M78.6934133,44.8097648 C78.0806555,42.6005695 77.0745539,40.543843 76.1946555,38.4403508 C75.6161711,37.0582023 75.8724211,36.1747805 77.4249758,35.8573508 C77.380132,38.6450305 79.3904133,40.7123273 80.0211086,43.2632961 L80.0211086,49.6695461 C79.6072648,49.7617961 79.1959836,49.9120227 78.7782961,49.932843 C78.2340852,49.9597492 77.5924992,49.8220148 77.3980695,49.3207258 C77.1613586,48.7102102 77.9195383,48.6358977 78.2600305,48.3959836 C80.143468,47.0698898 80.3276477,45.7008742 78.6934133,44.8097648"/>
      <path fill="#2D3C28" d="M31.3419047,78.8268883 C31.6945687,78.4261773 32.1346781,78.4594898 32.4703656,78.7560992 C33.6942797,79.8384352 34.8992953,79.4111383 36.1206469,78.7903727 C37.1046469,78.4133648 38.1088266,78.0972164 39.1149281,77.7855523 C40.9516,77.2166773 41.9163813,77.5856773 42.6812875,79.3355445 C43.0426,80.1625914 43.6611234,81.0091773 43.1851391,82.0210445 L41.9038891,82.0210445 C42.0111937,81.3560758 41.7104203,80.7801539 41.4938891,80.1891773 C41.0934984,79.0953102 40.4929125,78.5597477 39.2068578,79.0536695 C37.9829438,79.5238883 36.6405141,79.6811617 35.40635,80.1305602 C34.1657797,80.5825211 33.1558344,80.4813023 32.3022016,79.4358023 C32.0988031,79.0488648 31.2544594,79.6728336 31.3419047,78.8268883"/>
      <path fill="#343A2A" d="M46.0610969,81.0546617 C47.3939172,78.9787164 47.3900734,78.9825602 45.6049719,77.2612008 C44.9569797,76.6362711 44.3314094,75.9889195 43.6955891,75.3514977 C44.1315344,74.8892867 44.5863781,74.9219586 45.0540344,75.2999273 C46.9432375,76.7557477 48.3487687,78.7577008 50.4637922,79.9806539 C51.1098625,80.3541383 51.5650266,81.1334586 51.5131359,82.0210445 L49.2709484,82.0210445 C48.7654953,81.500857 49.7555812,80.3880914 48.5970109,80.1747633 C47.709425,80.0110836 47.5575969,80.9345445 47.1222922,81.4166148 C46.9028781,81.6594117 46.6309328,81.8176461 46.3881359,82.0210445 L45.7475109,82.0210445 C45.5345031,81.5956695 45.9240031,81.3663258 46.0610969,81.0546617"/>
      <path fill="#66775D" d="M46.0610969,81.0546617 C45.956675,81.3768961 45.8522531,81.6991305 45.7475109,82.0210445 L43.1850109,82.0210445 C42.9518234,81.271193 42.7493859,80.5101305 42.4787219,79.773732 C41.8502687,78.0651852 41.0517297,77.6942633 39.1891125,78.1414195 C38.1730812,78.3854977 37.1439172,78.5760836 36.1205187,78.790693 C36.1973937,78.7186227 36.2617766,78.6209273 36.3521047,78.5786461 C40.8070109,76.4914898 40.8380812,76.161568 44.2417219,79.6795602 C44.7455734,80.200068 44.9188625,81.327568 46.0610969,81.0546617"/>
      <path fill="#304128" d="M80.0211086,43.2632641 C78.8727883,40.8939125 76.6084992,38.9159828 77.4249758,35.8576391 C78.2904602,35.3364906 79.1556242,34.8153422 80.0211086,34.2945141 L80.0211086,36.2163891 C78.4884133,37.2279359 78.4567023,37.2433109 79.2843898,38.9589047 C79.6075852,39.6283578 79.6732492,40.3718031 80.0211086,41.0210766 L80.0211086,43.2632641 Z"/>
      <path fill="#EBE9BB" d="M46.3882961,82.0209164 C46.5920148,81.6499945 46.7259055,81.2073227 47.0151477,80.9228852 C47.5343742,80.4126273 47.6170148,79.2210648 48.8726398,79.7655961 C50.2326867,80.355932 49.6116008,81.1884242 49.2711086,82.0209164 L46.3882961,82.0209164 Z"/>
      <path fill="#67775D" d="M80.0211086,41.0210766 C79.3193039,40.2833969 79.0246164,39.3150922 78.6123742,38.426225 C77.8503508,36.7839828 78.1434367,36.3723813 80.0211086,36.2163891 L80.0211086,41.0210766 Z"/>
      <path fill="#647A5A" d="M34.2164211,82.0209164 C35.1802414,80.9209633 36.4560461,80.6502992 37.8208977,80.7697758 C38.4983586,80.8287133 39.0018898,81.2387133 39.0211086,82.0209164 L34.2164211,82.0209164 Z"/>
      <path fill="#303E2A" d="M22.6851711,82.0209164 C22.7959992,81.8091898 22.9068273,81.597143 23.0176555,81.3850961 C23.6121555,80.2588773 24.362007,79.2825648 25.5644602,78.7399555 C26.0266711,78.6682055 26.5048977,78.4119555 26.925468,78.8504633 C26.1448664,79.9894945 24.9331242,80.7700961 24.2867336,82.0209164 L22.6851711,82.0209164 Z"/>
      <path fill="url(#植物大战僵尸-d)" d="M58.7222865,44.01673 C58.7187427,44.2033606 58.6610419,44.4102422 58.5872055,44.6160078 C58.5859242,45.9702891 58.5843227,47.3248906 58.5830414,48.6791719 C58.806043,49.6117938 58.324293,50.1854734 57.5891758,50.6297469 C57.2521109,51.1281531 56.7312828,50.9683172 56.2738766,50.9731219 C53.7149,50.9984266 51.1556031,50.9929813 48.5966266,51.0243719 C47.5498453,51.0371844 46.7048609,50.6710672 46.6776344,49.5663094 C46.5760953,45.4352391 46.8765484,41.3695125 49.2468609,37.7672781 L49.4060492,37.467122 C50.3504336,35.7691047 51.6185508,34.42155 53.4670742,33.6992453 C54.623424,32.9242283 55.9664343,32.685923 57.2828609,32.3720305 L58.4958844,32.3720305 C58.4641734,33.1436633 57.8728766,33.4700617 57.5484,33.9601398 C57.0207528,35.2557486 57.4566981,36.3220642 58.3221789,37.3009352 C60.0938273,39.3048102 62.8222492,39.8832945 65.2188273,38.7493883 C65.8757242,37.4645187 66.5330055,36.179425 67.1902867,34.8946516 C67.4984273,35.1854953 67.8328336,34.5253312 68.1380914,34.9212375 C67.5509586,36.0865344 67.4276383,37.3687453 67.2844586,38.6278937 C67.0772164,40.4466281 66.5615133,42.1519719 65.8340836,43.8252844 C65.5253023,44.5357375 64.7997945,45.2980812 65.5832789,46.1635656 L65.5884039,46.1651672 C66.7351227,46.8346203 67.6922164,47.7865891 68.9276617,48.3327219 C71.1525523,49.3157609 72.597482,48.9935266 74.1378648,47.1049641 C74.3021852,46.9034875 74.4069273,46.6414719 74.678232,46.5418547 C74.7525445,46.5668391 74.8252555,46.562675 74.8966852,46.5293625 C75.8371227,46.9893312 75.827193,47.8878078 75.9165602,48.7408 C75.9126467,48.7459464 75.908708,48.7510405 75.9047441,48.7560824 C76.0809637,48.8990025 75.9689349,49.216812 76.1647703,49.3477281 C76.3105125,49.7708609 76.4562547,50.1936734 76.6019969,50.6164859 C76.1334062,51.6913939 75.8691518,52.8572602 75.1706389,53.8296958 L74.8512008,54.7572617 C74.2115367,55.5093555 73.5715523,56.2614492 72.9318883,57.0138633 C72.5003984,58.0669487 71.5801901,58.6422039 70.7198742,59.27575 C70.4782458,60.1038451 69.4957469,60.1875188 69.1133469,60.8741734 L67.8426022,61.5092255 L67.8488492,61.5197313 C66.0555477,62.7302562 64.2121492,63.8430219 62.1006492,64.4240687 C61.2712433,64.8372022 60.424669,65.2023542 59.5034647,65.360592 C59.6092266,66.4536648 60.5704844,66.1375164 61.1159766,66.1817195 C63.9773281,66.4133055 66.8486094,66.5196492 69.7160469,66.6692352 C69.3576172,66.8534148 68.9998281,67.0372742 68.5795781,67.2531648 C69.2714531,68.337743 70.8275313,67.481868 71.4575859,68.5709305 C71.4271563,69.4229617 71.3967266,70.2753133 71.3659766,71.1273445 L71.2288828,71.1385555 L71.1254472,71.1380739 C71.9262265,72.5014867 71.20988,73.8614504 71.1043133,75.2210984 C71.0440945,75.5756844 70.8522273,75.9155359 70.8919461,76.2806922 C71.0469773,77.7048016 70.2897586,78.5023797 69.073532,79.0011063 C65.1176727,78.4450437 61.1851961,77.7598953 57.2841102,76.8979344 C54.5683143,76.7877889 51.982826,75.8823109 49.2964453,75.5933977 C49.4902344,74.7336789 50.3486719,74.4854367 50.8627734,73.9184836 C52.9086094,71.6622023 53.1315469,69.2621008 51.4415781,66.6960773 C49.2410313,66.6458523 47.0571406,66.6394461 44.9638984,65.702532 C43.9161563,65.2332742 43.5058359,64.7672195 44.1061016,63.7178758 C44.093823,63.4057866 44.081336,63.0945752 44.0685289,62.7830438 L44.1646227,62.8128328 C44.3463886,61.3835615 45.4158856,60.6330897 46.4837812,59.9620516 C48.9245228,58.4277796 51.6423256,57.5235419 54.3803117,56.6862565 C55.2057945,56.3002391 56.0043336,55.8447547 56.9287555,55.7211141 C56.9288195,55.7212422 56.9371477,55.7289297 56.9371477,55.7289297 C57.5034922,55.2606008 58.1361094,54.9169055 58.8459219,54.7199133 C61.8652403,53.013063 63.9249509,50.5684466 64.8338679,47.2394422 C64.8139256,47.1045564 64.8457784,46.9504793 64.951943,46.7744016 L64.8308648,42.8979797 C64.7704539,42.6980406 64.7102352,42.4981656 64.6503367,42.2979703 C63.4426945,41.1908102 62.0579836,40.7872164 60.4570617,41.2414195 C59.7251477,41.6527008 59.3865773,42.3945445 58.9410227,43.0460602 C58.8681358,43.3697837 58.795249,43.693219 58.7222865,44.01673 Z M61.3987234,39.7389762 C61.399883,39.7406909 61.4010244,39.7424061 61.4021476,39.744122 C61.4049757,39.7421534 61.4078038,39.7401771 61.410632,39.738193 C61.406659,39.7384587 61.4026895,39.7387197 61.3987234,39.7389762 Z"/>
      <path fill="#463418" d="M45.15615,66.816707 C44.6055328,66.6309258 44.0549156,66.4451445 43.5042984,66.2593633 C43.0818063,65.9236758 42.8720016,65.499582 42.9572047,64.9508867 C43.2688688,64.1975117 42.7512438,62.9764805 44.1458844,62.829457 C44.4168688,63.0879492 44.4476188,63.4169102 44.4197516,63.7625273 C44.1407594,64.6171211 44.5907984,65.0562695 45.3198297,65.3301367 C46.6638609,65.8349492 48.0133375,66.2901133 49.486775,66.2228477 C50.1696813,66.191457 50.8692438,66.1581445 51.5239625,66.4547539 C53.7796031,68.8157773 53.1719703,72.834418 50.2379078,75.0141445 C49.9393766,75.2354805 49.5610875,75.3213242 49.2965094,75.5932695 C48.072275,75.6236992 46.8874391,75.4177383 45.7365563,75.0045352 C45.9377125,74.6867852 46.2637906,74.7024805 46.5789781,74.6906289 C45.3784469,74.3898555 44.3723453,73.3353867 42.9828297,73.7646055 C42.5609781,73.5121992 42.5427203,73.1275039 42.6308063,72.7059727 C42.8915406,72.065668 43.5046188,72.0281914 44.0488297,71.8728398 C45.0148922,71.7482383 45.7592984,72.3020586 46.5322125,72.7251914 C48.9326344,74.0397539 49.2977906,73.9535898 50.7898063,71.5951289 C51.0918609,70.5765352 51.5764938,69.5454492 50.5374,68.6405664 C50.3051734,68.5073164 50.1193922,68.3119258 49.8826813,68.1886055 C48.8599234,67.846832 47.7558063,68.0563164 46.7349703,67.7158242 C46.3102359,67.237918 45.9357906,66.6725664 45.15615,66.816707"/>
      <path fill="#290704" d="M69.7782836,60.8834305 C67.8218148,62.2405945 66.0408773,63.8796336 63.6801742,64.5830398 C63.1699164,64.734868 62.2973852,64.7761883 62.5187211,65.5740867 C62.7179555,66.2906258 63.4867055,65.9847273 64.0293148,65.8992039 C66.8602367,65.4536492 69.6165258,65.7781258 72.324768,66.6535398 C71.5633852,67.322993 70.6360805,67.0824383 69.7603461,67.1243992 C67.1725414,67.2515633 64.600432,66.9741727 62.0264008,66.7851883 C61.0577758,66.7140789 59.9818461,66.7947977 59.3806195,65.7425711 C59.7095805,64.4606805 60.9930727,64.677532 61.8242836,64.1848914 C63.8476977,63.6067273 65.5770648,62.4218914 67.409893,61.4510242 C67.5296898,61.367743 67.6552523,61.2924695 67.7801742,61.2171961 C68.224768,60.9615867 68.6575102,60.6761883 69.1895492,60.6278211 C69.4211352,60.6310242 69.6267758,60.695407 69.7782836,60.8834305"/>
      <path fill="#F17738" d="M71.1293405,68.9954103 C71.0837919,68.9357178 71.0358217,68.8774713 70.9849969,68.8209344 C70.6201609,68.4830047 70.1557078,68.4006844 69.6957391,68.2917781 C69.1342313,68.1591688 68.4253797,68.0278406 68.3965516,67.3571063 C68.3565125,66.4262781 69.3449969,67.0563328 69.7152781,66.6697156 C70.5852469,66.6642703 71.4548953,66.6591453 72.3248641,66.6537 C73.7182234,67.5902938 73.3482625,68.8696219 73.0036063,70.1444656 C73.0854374,70.921597 72.9633969,71.6698195 72.6780086,72.3940203 L72.6673743,73.3809272 C72.5463602,74.6419734 72.4803758,75.9110516 72.2904305,77.1612312 C72.0575633,78.6961687 70.9480008,79.2948328 69.073532,79.0011062 C70.2250494,78.1676575 70.539599,76.9206897 70.7452397,75.6195878 C70.8608117,74.1256617 70.9764445,72.6317242 71.0920773,71.1377867 C71.1722321,71.0886226 71.2527297,71.0696205 71.3337747,71.0779146 C70.8803362,70.3698188 70.7286946,69.6728637 71.1293405,68.9954103 Z M72.849877,70.3383529 C72.9014621,70.2732579 72.9524541,70.2088858 73.0034461,70.1444656 Z"/>
      <path fill="#320E07" d="M69.7782836,60.8834305 L69.1133148,60.8741414 C69.038682,59.8827742 70.1341508,59.7700242 70.4570258,59.076868 C71.2107211,58.3350242 72.0960648,57.7219461 72.672307,56.8061727 C73.1989008,56.0143602 73.7770648,55.2699539 74.5925805,54.7472039 C74.7463305,54.7065242 74.8731742,54.7456023 74.9689477,54.8753289 C74.9660648,56.6882977 73.2427836,57.3593523 72.405807,58.6188211 C71.7892055,59.5458055 70.6722758,60.1406258 69.7782836,60.8834305"/>
      <path fill="#AA5C28" d="M43.1124281,73.701568 C43.2869984,72.9059117 43.7828422,73.0638258 44.3248109,73.2742711 C45.3062484,73.6548023 46.2245844,74.1410367 47.2473422,74.8940914 C46.6128031,74.9405367 46.1746156,74.972568 45.7364281,75.0045992 C45.5224594,74.993068 45.3084906,74.981857 45.0942016,74.9706461 C44.2716391,75.085318 43.6444672,74.7377789 43.1223578,74.1387945 C43.057975,73.9946539 43.0550922,73.8485914 43.1124281,73.701568"/>
      <path fill="#320E07" d="M76.6022852,50.6162297 C76.6967773,50.6383312 76.7909492,50.662675 76.8848008,50.6889406 C76.9892227,52.4247141 76.4943398,53.8856594 74.9686914,54.8751047 C74.9315352,54.8341047 74.8921367,54.7947062 74.8511367,54.7572297 C74.5769492,54.3645266 74.7640117,53.9926437 74.8979023,53.6169172 C75.554543,52.6678312 75.5452539,51.3385344 76.6022852,50.6162297"/>
      <path fill="#463418" d="M43.2252102,73.9912266 C43.848218,74.317625 44.4715461,74.6440234 45.0945539,74.9707422 C45.0814211,75.0799688 45.0682883,75.1898359 45.0548352,75.3000234 C44.601593,75.317 44.1489914,75.3339766 43.6957492,75.3512734 C43.6191945,75.3647266 43.5567336,75.3416641 43.5074055,75.2817656 C43.0512805,75.0159063 42.3126398,75.0546641 42.3725383,74.2317813 C42.5317336,73.7135156 42.9225148,74.0078828 43.2252102,73.9912266"/>
      <path fill="#A1B89B" d="M41.5613789,2.92096172 C41.2599648,3.85723516 40.9582305,4.79350859 40.6568164,5.72978203 C41.1388867,5.99179766 41.5280664,6.29193047 41.3361992,6.94536797 C40.5475898,9.63311016 41.3534961,12.0690867 42.5107852,14.4608602 C43.1629414,15.8087352 42.9845273,16.2004773 41.4249258,16.1072664 C36.6359336,15.820907 31.7258633,20.1998992 30.6563398,25.3076023 C30.4567852,26.260532 30.5013086,27.2070555 30.4900977,28.1596648 C29.3094258,33.1584617 31.8642383,36.9810711 34.4703008,40.7854227 C36.8338867,43.7210867 40.0033789,44.6259695 43.615543,44.4155242 C45.6584961,44.3892586 45.6584961,44.3892586 45.8529258,46.0295789 C45.849082,46.376157 45.7863008,46.710243 45.6386367,47.0254305 C44.9262617,47.5878992 44.819918,48.5847117 44.1216367,49.1593523 C43.4970273,49.3858133 42.9736367,49.0638992 42.4560117,48.8134148 C40.9521445,48.0847039 39.3473789,47.945368 37.773043,48.2909852 C30.4321211,49.9015164 23.1699961,51.7705398 16.5516992,55.4960945 C16.3294023,55.4890477 16.550418,55.8218523 16.5565039,55.6085242 C16.5571445,55.5803367 16.6096758,55.5748914 16.7067305,55.5556727 C16.9216602,55.5137117 17.129543,55.5374148 17.3390273,55.5941102 C18.163832,56.0806648 18.3768398,56.5720242 17.3508789,57.0723523 C16.9357539,57.1626805 16.5071758,57.2219383 16.113832,57.3792117 C13.243832,58.5246492 11.4401523,56.7411492 9.89656641,54.5777586 C9.41417578,53.9022195 9.31007422,53.1007977 9.71174609,52.3064227 C10.072418,51.9175633 10.4612773,52.0482508 10.8539805,52.2433211 C13.2153242,53.716118 15.7477148,53.2567898 17.5597227,51.0190867 C18.405668,49.7605789 19.1763398,48.4700398 19.3624414,46.9216492 C19.8214492,43.2595164 18.3448086,40.3795867 15.7425898,37.9548211 C13.3126992,34.5156258 8.93626953,33.4031805 5.16523047,35.2699617 C4.35676172,35.670032 3.84522266,36.300407 3.62965234,37.1854305 C3.50953516,37.6793523 3.58384766,38.2748133 3.00216016,38.5659773 C1.31539453,37.9897352 0.939988281,36.7014383 1.84935547,34.6293367 C1.99926172,34.5604695 2.17863672,34.5358055 2.25999609,34.6908367 C2.35224609,34.8670086 2.44353516,35.0870633 2.34359766,35.1665008 C2.58543359,34.671618 2.60273047,33.9742977 2.74430859,33.3314305 C4.53549609,25.220157 9.02019141,18.8481805 15.3745508,13.6860242 C21.1542695,8.99088359 27.5995977,5.53631328 34.7540977,3.42929766 C34.9161758,3.39822734 35.0539102,3.44435234 35.1660195,3.56575078 C35.1359102,4.03244609 35.2614727,4.33353984 35.8165742,4.17658672 C35.9360508,3.02410234 36.6849414,2.52986016 37.7336445,2.50263359 C39.0213008,2.46868047 40.3666133,2.05964141 41.5613789,2.92096172"/>
      <path fill="#6A8675" d="M30.0493797,28.2042203 C29.8863406,20.9296031 34.2230516,16.5611812 42.6408641,15.5935172 C41.4204734,13.2741344 40.2907313,10.9592359 40.5745281,8.22697031 C40.6594109,7.4092125 41.5425125,6.58312656 40.6568484,5.72981406 C41.5598094,6.09336875 41.8673094,5.48445469 42.1411766,4.82076719 C42.5944188,4.51006406 42.6472703,3.64105625 43.4807234,3.86079062 C43.5358172,4.27303281 43.7039813,4.55298594 44.1870125,4.50269687 C44.7959266,4.43959531 44.6850984,3.92709531 44.794325,3.55040781 C45.0614656,3.28775156 45.3827391,3.31914219 45.6828719,3.43605625 C48.0089813,4.34254062 50.2233016,5.45818906 52.2073172,6.99216562 C52.4635672,7.19043906 52.6528719,7.44540781 52.6672859,7.78974375 C52.6163563,8.20775156 52.2367859,8.89225937 53.2262313,8.47104844 C55.5709188,9.51014219 57.0856766,11.3202281 58.0434109,13.6466578 C57.7304656,14.1745328 58.0664734,14.3622359 58.4963328,14.5009312 C60.4162859,17.9426891 62.0995281,21.485025 63.1972391,25.2884156 C63.4432391,26.1414078 63.3506688,26.7794703 62.7347078,27.4675016 C61.7084266,28.6129391 60.7993797,29.8627984 59.8410047,31.0684547 C58.1353406,31.7923609 56.2579891,31.7068375 54.5045984,32.2042828 C53.4542938,31.960525 53.7175906,31.0690953 53.6525672,30.3829859 C53.0481375,24.0068453 48.0634344,19.4007516 41.6808875,19.7082516 C36.7692156,19.9446422 33.1253406,22.3918297 31.0545203,26.9751812 C30.8360672,27.4578922 30.8764266,28.2003766 30.0493797,28.2042203"/>
      <path fill="#D1E4AC" d="M34.857975,3.50777422 C33.9111313,4.21598516 32.7496781,4.42578984 31.6823969,4.84219609 C25.4596859,7.26984453 19.7324984,10.4748914 14.6420922,14.8721414 C10.0103734,18.8728445 6.43344375,23.545243 4.35877969,29.3063836 C3.61085,31.3839305 3.23192031,33.5886414 2.29724844,35.8071258 C2.21909219,35.2539461 2.16752188,34.8916727 2.11659219,34.5293992 C1.39877188,33.4749305 1.95899844,32.3948367 2.07110781,31.3317195 C2.18642031,30.2349695 2.50000625,29.1750555 2.79981875,28.1164227 C2.95164688,27.6446023 3.21910781,27.2173055 3.3366625,26.7310711 C3.62045938,25.6346414 3.84852188,24.5090633 4.83412344,23.7672195 C5.30434219,23.5788758 6.0785375,23.5718289 5.4532875,22.729407 C4.94495156,22.2953836 5.27519375,21.8472664 5.49652969,21.4731414 C6.21402969,20.2610789 6.8575375,18.9974461 7.79701406,17.9288836 C8.68171719,17.666868 8.73905313,17.5983211 9.45335,15.9467898 C9.99179531,15.8538992 10.4847563,15.7055945 10.5382484,15.0306961 C11.5068734,13.1498211 13.2266313,12.0117508 14.8621469,10.8554227 C20.3449359,6.97964141 26.5772563,4.83963359 33.033475,3.26689922 C33.6526391,3.11603203 34.3035141,3.02698516 34.857975,3.50777422"/>
      <path fill="#22431C" d="M41.5613789,2.92096172 C40.1849961,2.72589141 38.8163008,2.93185234 37.4444023,2.99431328 C36.6276055,3.03178984 36.0372695,3.33896953 35.8165742,4.17658672 C35.9645586,3.09713359 35.2903008,2.26816484 34.8399414,1.25117266 C37.0116602,0.752125781 39.1343711,0.901071094 41.205832,1.06507109 C42.4633789,1.16436797 41.8205117,2.21275078 41.5613789,2.92096172"/>
      <path fill="#2E4A2B" d="M42.2719281,3.59208047 C42.1777562,3.21859609 42.2373344,2.86913516 42.4368891,2.54241641 C42.7962797,1.95336172 42.8049281,1.05584609 43.7693891,0.999791406 C43.9096859,0.991463281 44.1614516,1.05328359 44.1825922,1.13143984 C44.390475,1.89314297 43.7953344,2.36208047 43.4820687,2.93543984 C43.1393344,3.26568203 42.7998031,3.60297109 42.2719281,3.59208047"/>
      <path fill="#A1AD9D" d="M42.2719281,3.59208047 C42.4919828,3.03537734 42.8420844,2.71794766 43.4820688,2.93543984 C43.7418422,3.24454141 43.7117328,3.55268203 43.4804672,3.86082266 C43.0339516,4.18081484 42.5877563,4.50080703 42.1412406,4.82047891 C42.1848031,4.41111953 42.2283656,4.00143984 42.2719281,3.59208047"/>
      <path fill="#66785A" d="M51.1624898,71.7321266 C49.3969273,74.5451109 49.0730914,74.6200641 46.1652945,72.9646891 C45.5265914,72.6008141 44.9032633,72.1780016 44.1306695,72.1331578 C42.5121305,72.0524391 41.0704039,72.3176578 40.345857,74.0303687 C40.2872398,74.1690641 40.1488648,74.2936656 40.0117711,74.3692594 C37.7208961,75.6300094 35.4050367,76.8004313 32.6516305,76.1905563 C32.4924352,76.1556422 32.377443,76.035525 32.2762242,75.9090016 C35.7298336,75.2235328 36.717357,72.0079156 38.5517867,69.6987828 C40.1658414,67.6670406 41.6972555,67.0472359 44.241818,67.8460953 C44.830232,68.0305953 45.4064742,68.4623766 46.0083414,67.8835719 C46.4852867,68.3835797 46.3478727,69.1702672 46.9302008,69.6625875 C47.9202867,70.4995641 48.8466305,70.5594625 49.9549117,69.6914156 C50.171443,69.5219703 50.3802867,69.3829547 50.6640836,69.5245328 C51.3722945,70.1382516 51.1086773,70.9710641 51.1624898,71.7321266"/>
      <path fill="#313523" d="M43.1878297,65.098807 C43.2935328,65.4857445 43.3989156,65.872682 43.5042984,66.2592992 C38.8738609,65.5984945 38.1554,65.975182 35.9036031,70.2616039 C35.6822672,70.6834555 35.4019938,71.1005023 35.300775,71.5537445 C34.9705328,73.0303852 34.0448297,73.7078461 32.5858063,73.6745336 C31.7209625,73.6549945 31.2420953,74.1867133 30.760025,74.7600727 C29.8971031,74.3132367 29.9938375,73.6988773 30.4528453,73.0198148 C33.4115719,72.5979633 34.3391969,70.1382836 35.5278766,67.9419008 C35.8356969,67.5114008 36.2348063,67.1584164 36.5519156,66.7349633 C36.8475641,66.3137523 37.1733219,65.9165648 37.4958766,65.6254008 C36.0282047,65.9873539 34.6412516,66.759307 33.0774859,66.9982602 C31.3468375,67.5463148 29.6430953,68.169643 27.9079625,68.6955961 C27.3012906,68.8797758 26.5584859,69.1568461 26.1715484,68.4614477 C25.7762828,67.7506742 26.4515016,67.3172914 26.9098688,66.8845492 C27.0370328,66.7916586 27.1770094,66.7167055 27.3201891,66.6523227 C28.3301344,66.2948539 29.4742906,66.1539164 30.0040875,65.0068773 C30.9361969,65.4325727 31.8859234,65.3989398 32.8426969,65.1052133 C33.6521266,64.980932 34.0259313,64.0872602 34.8385641,63.9681039 C36.2274391,64.2253148 37.4468688,63.3713617 38.7934625,63.357268 C39.2953922,63.3636742 39.7047516,63.0481664 40.1778531,62.9530336 C41.0180328,62.9136352 41.7947906,62.4366898 42.6637984,62.5878773 C42.8005719,62.644893 42.9114,62.7332992 42.9953219,62.8559789 C43.1000641,63.4559242 43.1468297,64.0363305 42.4639234,64.3579242 C42.1199078,64.4431273 41.7771734,64.5433852 41.2115016,64.5254477 C41.7720484,64.6061664 42.1333609,64.5011039 42.49115,64.5638852 C42.7970484,64.6465258 43.0609859,64.7839398 43.1878297,65.098807"/>
      <path fill="#323D2B" d="M32.2762242,75.9090336 C34.1196227,76.415768 35.8044664,75.662393 37.4957164,75.1729555 C38.8602477,74.7783305 40.0886461,74.2078539 40.7545758,72.6719555 C41.4765602,71.0060102 42.9458336,72.0146742 44.1306695,72.1328695 C43.821568,72.5909164 43.1069508,72.222557 42.8404508,72.766768 C42.6165523,73.1645961 41.397443,73.3276352 42.5396773,74.0467367 C42.4999586,74.7421352 43.191193,74.8651352 43.5073414,75.2818617 C40.6421461,74.8561664 38.076443,76.1607992 35.3794117,76.7034086 C34.9111148,76.7979008 34.3989352,77.1098852 33.9850914,76.8911117 C32.7794352,76.2533695 31.7771773,76.6185258 30.7726773,77.4071352 C30.9744742,76.5330023 31.644568,76.2408773 32.2762242,75.9090336"/>
      <path fill="#313523" d="M50.5373359,69.5137383 C49.8867812,70.7773711 49.0062422,71.1806445 47.6071172,70.5576367 C46.3726328,70.0076602 45.7871016,69.2273789 46.0084375,67.883668 C46.2413047,67.1152383 45.4591016,67.1578398 45.1560859,66.816707 C45.9568672,66.5486055 46.7105625,66.371793 46.7240156,67.6270977 C46.9267734,67.8099961 47.0337578,68.0463867 47.0779609,68.3071211 C47.2080078,69.0707461 47.6558047,69.5220664 48.4143047,69.6332148 C49.2532031,69.7558945 49.4332187,69.0774727 49.7032422,68.5204492 C49.8185547,68.2827773 49.9630156,68.0694492 50.1984453,67.9329961 C50.5075469,68.0867461 50.5578359,68.3833555 50.6116484,68.6786836 C50.8121641,68.9768945 50.8089609,69.257168 50.5373359,69.5137383"/>
      <path fill="#4F5E4B" d="M31.3419047,78.8268883 C31.6618969,79.0299664 31.9822094,79.2330445 32.3022016,79.4358023 C31.2861703,79.267318 30.7377953,80.1648336 29.7009438,80.6030211 C30.1276,79.691732 30.6830219,79.215107 31.3419047,78.8268883"/>
      <path fill="#180603" d="M42.5486141,64.0925133 C42.6809031,63.6642555 42.8128719,63.2356773 42.9451609,62.8074195 C42.8215203,62.4454664 42.8269656,62.083193 42.9361922,61.7189977 C43.3580438,60.7625445 43.9714422,59.9556773 44.8093797,59.3243414 C45.2270672,58.9361227 45.7152234,58.6510445 46.208825,58.3736539 C46.5592469,58.1350211 46.8846844,57.8553883 47.2969266,57.720857 C47.6354969,57.619318 47.9779109,57.5273883 48.2854109,57.3409664 C49.0778641,56.9482633 49.8965828,56.6183414 50.7178641,56.2935445 C52.1144266,55.6532398 53.6628172,55.369443 54.9485516,54.4789742 C55.2976922,54.1544977 55.2458016,53.7505836 55.167325,53.3431461 C54.6125438,52.6865055 53.8729422,53.0394898 53.2220672,53.0064977 C50.9017234,52.8883023 48.5650438,52.9353883 46.3250984,52.1538258 C45.5041375,51.5884742 45.3097078,50.6941617 45.0877313,49.8120211 C44.9669734,48.8824742 44.7875984,47.9449195 45.3869031,47.0948102 C45.4118875,46.7921148 45.4368719,46.4894195 45.4618563,46.1867242 C45.6960047,44.9890758 45.6056766,43.8266617 45.0794031,42.7122945 C44.9310984,42.1133102 45.4650594,42.049568 45.7863328,41.8378414 C46.33695,41.4749273 46.5051141,40.9633883 46.4400906,40.3407008 C46.4269578,40.1135992 46.4455359,39.8900211 46.4964656,39.6690055 C47.0932078,37.8224039 47.9888016,36.1500523 49.3623016,34.7563727 C50.2457234,33.9030602 51.0868641,32.9962555 52.2233328,32.4571695 C52.9055984,32.142943 53.7361688,32.4283414 54.3726297,31.9248102 C56.1333875,31.2422242 57.9524422,30.9340836 59.8410047,31.0686148 C59.6254344,31.3943727 59.4095438,31.7201305 59.1936531,32.045568 C58.7211922,32.598107 57.9838328,32.3799742 57.4184813,32.6621695 C56.1705438,33.0619195 54.9171609,33.4472555 53.7140672,33.9738492 C51.8418406,34.7409977 50.5573875,36.1337164 49.5833172,37.8592398 C49.5182938,38.011068 49.4430203,38.1539273 49.3629422,38.2977477 C47.4980828,41.6587867 46.9772547,45.2895289 47.1547078,49.0685758 C47.1905828,49.8322008 47.3292781,50.4757086 48.2732391,50.4712242 C51.2412547,50.4568102 54.2131141,50.7024898 57.1715203,50.3360523 C58.0302781,49.9603258 58.1548797,49.2220055 58.1225281,48.4052086 C58.1164422,47.1915445 58.0171453,45.9772398 58.2128563,44.770943 C58.3839031,44.1975836 58.4569344,43.6011617 58.6049188,43.0217164 C58.9383641,42.1043414 59.4463797,41.3359117 60.3909813,40.9406461 C62.1712781,40.3086695 63.6677781,40.6754273 64.833075,42.2078023 C64.9624813,42.4409898 65.0451219,42.6914742 65.1111063,42.9483648 C65.4423094,44.1364039 65.4743406,45.3404586 65.3000906,46.5547633 C64.5624109,50.3056227 62.5601375,53.1314195 59.1577781,54.9302945 C58.4963328,55.2451617 57.8291219,55.5517008 57.1792078,55.8941148 C57.0504422,55.9626617 56.9159109,56.0177555 56.7797781,56.0680445 C55.9543328,56.3358258 55.1705281,56.7150758 54.3466844,56.987982 C52.2005906,57.8749273 49.9715359,58.5527086 47.8911063,59.6030133 C46.4987078,60.3060992 45.2844031,61.2048961 44.4576766,62.5607789 C44.3490906,62.6712867 44.2187234,62.7449586 44.0688172,62.7830758 C43.0867391,63.292693 43.8817547,64.4784898 43.1879578,65.0982945 C42.9086453,65.0473648 42.6482313,64.9656852 42.5101766,64.6838102 C42.3519422,64.4752867 42.3580281,64.2779742 42.5486141,64.0925133"/>
      <path fill="#66785A" d="M59.5885023,35.8425844 C60.4434164,36.2147875 61.3092211,36.570975 61.9453617,35.5081781 C62.611932,34.3944516 63.2817055,33.2634281 62.0638773,32.0773109 C62.9882992,30.6371859 64.2753148,29.5061625 65.3608539,28.2031312 C65.9095492,27.5448891 66.6151977,27.4628891 67.3881117,27.6877484 C68.4086273,27.9843578 69.4381117,28.2623891 70.4400492,28.6070453 C72.5054242,29.3178187 74.5567055,30.0013656 76.783518,29.4670844 C76.3578227,30.4949672 70.9054633,33.1154437 69.9599008,32.5987797 C67.7769711,31.4056156 67.1001508,31.8268266 66.2522836,34.6154672 C66.2538852,34.6913812 66.2551664,34.7672953 66.2580492,34.8432094 C65.9412602,35.8691703 65.456307,36.8230609 64.995057,37.7900844 C63.1004086,39.3717875 60.4072211,38.9102172 59.229432,36.8054437 C59.1932367,36.4265141 59.234557,36.0760922 59.5885023,35.8425844"/>
      <path fill="#A2B59B" d="M76.7834219,29.4669883 C75.5358047,30.317418 74.234375,30.3100508 72.8394141,29.8337461 C71.0350938,29.2177852 69.1827266,28.7418008 67.3825703,28.1149492 C66.5503984,27.8253867 66.1013203,27.9989961 65.4744688,28.6396211 C64.3476094,29.7921055 63.6438828,31.3795742 62.0637813,32.0772148 C61.1367969,31.6444727 60.9292344,31.1643242 61.7328984,30.3186992 C62.682625,29.3196445 63.5023047,28.1950273 64.3578594,27.1088477 C65.2733125,25.9467539 66.3783906,25.5249023 67.8684844,25.883332 C69.6484609,26.3119102 71.3259375,26.9150586 72.8455,27.9483867 C73.6850391,28.5195039 74.5232969,28.8628789 75.4192109,27.959918 C75.9352344,27.4397305 76.4349219,26.5572695 77.3715156,27.4605508 C78.4769141,28.5262305 77.0861172,28.8308477 76.7834219,29.4669883"/>
      <path fill="#46360D" d="M59.5134211,36.8898781 C61.1111398,38.5337219 63.1617805,38.7617844 64.9254211,37.491425 C65.537218,36.6124875 65.8930852,35.6153547 66.2499133,34.6188625 L66.2521555,34.6156594 C66.6730461,34.2950266 67.0939367,33.9747141 67.514507,33.6540812 C67.9120148,34.1230187 67.6224523,34.5727375 67.4802336,35.0279016 C66.7512023,36.3668078 66.4513898,37.9417844 65.2848117,39.0439797 C62.6130852,40.4450266 58.8558195,39.3703781 57.4493273,36.8078781 C56.9739836,35.9423937 56.7122883,35.0548078 57.1309367,34.0881047 C57.3503508,33.5330031 58.1219836,33.0259484 57.2827648,32.3718703 C57.8378664,31.7824953 58.5579289,32.1601437 59.1937492,32.0457922 C59.489718,32.0682141 59.7472492,32.1537375 59.8718508,32.4583547 C59.975632,33.319675 59.3679992,33.8795812 58.991632,34.5371828 C58.699507,34.6006047 58.403218,34.6573 58.285343,34.9913859 C58.8795227,35.5045266 59.1341711,36.2374016 59.5134211,36.8898781"/>
      <path fill="#4A3B14" d="M70.0552898,34.2940656 C69.7506727,34.6146984 69.4463758,34.9356516 69.1417586,35.2562844 C67.8563445,36.404925 68.3531492,38.0923312 67.9082352,39.4985031 C67.6209148,40.4062687 67.5430789,41.437675 67.5898445,42.4338469 C67.5651805,42.5994484 67.5177742,42.7592844 67.4553133,42.9143156 C66.6506883,43.9229797 66.501743,45.3413234 65.4238914,46.1815031 C64.7352195,45.3964172 65.1545086,44.4771203 65.4434305,43.8227219 C66.4639461,41.5091047 66.7954695,39.0638391 67.1760008,36.6153703 C67.2576805,36.0906984 67.4300086,35.59005 67.6542273,35.1115031 C67.9806258,34.5890734 68.2416805,34.0493469 68.039243,33.4042375 C68.9056883,33.2600969 69.6584227,33.3738078 70.0552898,34.2940656"/>
      <path fill="#EAE9BE" d="M58.9915359,34.5372789 C58.4867234,33.506193 59.7237703,33.2127867 59.8717547,32.4584508 C60.7455672,31.6144273 61.348075,32.3348102 61.8074031,32.9136148 C62.5117703,33.8008805 61.6328328,34.4757789 61.2628719,35.1686148 C60.856075,35.9309586 60.3624734,35.3137164 59.9345359,35.1157633 C59.6023719,34.961693 59.3048016,34.7326695 58.9915359,34.5372789"/>
      <path fill="#091A03" d="M61.7254352,14.0810656 C61.1248492,14.2982375 60.4073492,13.9087375 59.8676227,14.4394953 C59.4105367,14.459675 58.9534508,14.480175 58.4960445,14.500675 C58.3993102,14.5352688 58.3035367,14.5730656 58.2058414,14.6034953 C57.7910367,14.7329016 57.2394586,15.0871672 57.0376617,14.4945891 C56.8762242,14.0202063 57.6308805,14.0769016 57.8506148,13.7530656 C58.1907867,13.3811828 58.606232,13.1976438 59.114568,13.2418469 C59.5671695,13.3103938 60.0184898,13.3968781 60.4807008,13.3949563 C60.9451539,13.4365969 61.4374742,13.4020031 61.7584273,13.8469172 C61.7475367,13.9247531 61.7366461,14.0029094 61.7254352,14.0810656"/>
      <path fill="#EAC478" d="M68.0390828,33.4041414 C69.3353875,33.8272742 68.5390906,34.3871805 68.1380594,34.9211414 C67.8263953,34.7561805 67.4785359,35.8923289 67.1902547,34.8945555 C67.2982,34.481032 67.4064656,34.0675086 67.5147312,33.6543055 C67.6050594,33.3935711 67.8321609,33.4198367 68.0390828,33.4041414"/>
      <path fill="#989A8E" d="M59.5134211,36.8898781 C58.8090539,36.4478469 58.382718,35.8261203 58.285343,34.9913859 C58.8827258,35.0256594 59.1927883,35.4997219 59.5880539,35.8427766 C59.5633898,36.1915969 59.5384055,36.5407375 59.5134211,36.8898781"/>
      <path fill="#67775A" d="M76.5034367,33.6657727 C75.7491008,34.3867961 74.700718,34.5120383 73.8188977,34.9825773 C71.9646086,35.9717023 71.7461555,36.5373742 72.2839602,38.5438117 C72.7080539,40.1267961 73.3582883,41.6284211 73.7317727,43.2370305 C74.1424133,45.0064367 73.9556711,46.473468 72.639507,47.7489523 C72.0446867,48.8678039 71.0898352,48.881257 70.0965461,48.4808664 C68.9869836,48.0333898 67.8838273,47.5413898 67.0023273,46.6864758 C66.5788742,46.2050461 66.0788664,45.6803742 66.480218,45.0150852 C66.8373664,44.4231477 67.4200148,44.7527492 67.9075305,44.9292414 C68.6794836,45.2088742 69.5619445,45.8546242 70.2016086,44.9731242 C70.804757,44.141593 70.8950852,43.0986555 70.1602883,42.173593 C70.0609914,42.0486711 70.0481789,41.8827492 70.0664367,41.7213117 C70.399882,41.6537258 70.6683039,41.5179133 70.6820773,41.1223273 C70.6932883,40.8045773 70.7128273,40.4861867 70.7102648,40.1684367 C70.6734289,35.3086555 71.0847102,34.9345305 76.5034367,33.6657727"/>
      <path fill="#383E22" d="M70.0663727,41.7214398 C71.1262867,42.5974945 71.4097633,44.0174398 70.6528648,45.2090023 C69.897568,46.398643 68.9062008,45.741682 67.9718492,45.4316195 C67.5496773,45.291643 67.0804195,44.6990648 66.708857,45.1212367 C66.2312711,45.6641664 67.0519117,45.9985727 67.2079039,46.4639867 C66.6755445,46.9274789 66.1934742,46.6939711 65.7178102,46.3570023 C65.6726461,46.2932602 65.6278023,46.2282367 65.5832789,46.1635336 C65.7697008,44.9187992 66.2613805,43.8246117 67.1755523,42.939268 C67.5499977,43.6154477 67.8437242,44.3483227 68.774232,44.4802914 C69.3190836,44.557807 69.7242789,44.4995102 69.8588102,43.9030883 C69.9959039,43.2935336 69.7909039,42.8809711 69.1345836,42.7509242 C68.508693,42.626643 67.8828023,42.8998695 67.2588336,42.7365102 C67.2030992,40.4497992 67.8840836,38.274557 68.2879977,36.0583148 C68.3635914,35.6428695 68.6172789,35.2674633 69.1419508,35.2562523 C68.2598102,37.0118852 68.5432867,39.0067914 67.9990758,40.8325727 C67.8642242,41.2861352 68.1723648,41.3373852 68.5205445,41.3924789 C69.0400914,41.4744789 69.5516305,41.6090102 70.0663727,41.7214398"/>
      <path fill="#4A3B14" d="M74.678232,46.5417906 C73.504607,49.1558609 71.5615914,49.9553609 69.0413727,48.8179312 C67.6899742,48.2080562 66.3763727,47.5209859 65.5884039,46.1651031 C66.1281305,46.2647203 66.6681773,46.3643375 67.2079039,46.4639547 C67.9378961,46.8880484 68.6851852,47.2849156 69.3930758,47.7429625 C70.486943,48.4502125 71.5561461,48.5181187 72.6397633,47.7490484 C73.5805211,47.7878062 73.8050602,46.6173844 74.678232,46.5417906"/>
      <path fill="#E4E3B9" d="M76.1011883,46.1493758 C76.7270789,45.7204773 77.4247195,45.5375789 78.1774539,45.546868 C78.5448523,45.5513523 78.9407586,45.5190008 79.0406961,46.0106805 C79.2229539,46.9094773 78.6691336,47.3748914 77.9791805,47.7201883 C77.3936492,48.0129539 76.7536648,48.7365398 76.2283523,47.6292195 C75.6963133,47.1782195 75.5153367,46.6967898 76.1011883,46.1493758"/>
      <path fill="#4A3B14" d="M76.1648344,49.3477922 C76.0331859,49.1309406 75.9018578,48.9140891 75.7702094,48.6965969 C75.478725,47.9736516 75.1872406,47.2513469 74.8963969,46.5293625 C75.1686625,45.9921984 75.6744359,46.1955969 76.1010922,46.1494719 C75.7730922,46.6744641 76.2055141,47.1344328 76.2285766,47.6293156 C76.2071156,48.2020344 76.185975,48.7747531 76.1648344,49.3477922"/>
      <path fill="#EDEAB9" d="M50.1985734,67.9331242 C49.5890188,70.3646164 49.1761359,70.6240695 47.4762375,69.7960617 C46.4473938,69.2947727 46.5764797,68.4869445 46.7241438,67.6272258 C47.9105813,67.4065305 49.0822844,67.356882 50.1985734,67.9331242"/>
      <path fill="#9BAB8F" d="M50.5373359,69.5137383 C50.562,69.2350664 50.5866641,68.9563945 50.6113281,68.678043 C50.83875,68.6431289 50.8150469,67.6495195 51.2039062,68.4390898 C51.7228125,69.4932383 51.7631719,70.6418789 51.1625859,71.7322227 C50.6504062,71.0784648 50.9079375,70.2075352 50.5373359,69.5137383"/>
      <path fill="#180A07" d="M42.5395172,74.0465766 C42.1791656,73.7563734 41.3601266,74.5702875 41.3690953,73.7336312 C41.3764625,73.0315062 42.0571266,72.6535375 42.8409313,72.7666078 C42.8697594,73.0965297 42.8002516,73.4546391 43.1128766,73.7016 C43.1670094,73.7912875 43.2044859,73.8880219 43.2249859,73.9911625 C43.0225484,74.3287719 42.7704625,74.0593891 42.5395172,74.0465766"/>
      <path fill="#040703" d="M46.7484875,40.3825016 C47.2712375,41.9145562 46.0838391,42.1711266 45.1062453,42.5843297 C44.9095734,43.2073375 44.3772141,43.3172047 43.8445344,43.3501969 C40.9511516,43.5305328 38.1167063,43.4206656 35.6794484,41.5445953 C35.296675,41.0413844 34.7146672,41.1169781 34.1835891,41.0429859 C31.3510656,37.2319078 28.9759484,33.2731656 30.0493156,28.2042203 C31.4343469,24.4338219 33.8197141,21.6118687 37.6247063,20.0839781 C45.3275813,16.9910406 53.8149016,22.4866422 54.0935734,30.7596734 C54.1067063,31.1578219 53.9020266,31.6290016 54.3725656,31.9252906 C53.9744172,33.13415 52.9449328,32.5428531 52.1761828,32.6946812 C51.5499719,32.0969781 51.7690656,31.3115719 51.7309484,30.5947125 C51.48655,26.0027125 47.4060891,21.7870797 43.0062766,21.6054625 C41.6459094,21.6685641 40.2788156,21.5148141 38.9274172,21.7547281 C32.3994484,23.58115 29.484925,30.8279 32.9599953,36.6085797 C35.6762453,40.7313219 39.3105109,42.1153922 44.5706828,41.0208844 C45.3224563,40.8982047 45.9454641,40.3306109 46.7484875,40.3825016"/>
      <path fill="#050A03" d="M10.8378367,52.5402828 C10.5441102,52.4598844 10.2507039,52.3791656 9.95697734,52.2987672 C9.48163359,52.5876891 9.00725078,52.5300328 8.53190703,52.2981266 C7.88968047,51.9445016 7.29902422,51.5082359 6.67505547,51.1229 C3.95047734,49.1055719 3.17628203,46.3134078 3.48378203,43.0904234 C3.70671953,42.2300641 4.14939141,41.4469 4.37232891,40.5846187 C4.51711016,40.0814078 4.87682109,39.7386734 5.24582109,39.4010641 C6.53700078,38.1137281 7.84900078,36.8622672 9.70585234,36.4122281 C12.0233133,35.8504 14.144743,36.1406031 15.9708445,37.7914938 C18.9657664,40.1848687 20.2345242,43.2800484 19.7521336,47.0879234 C19.0346336,47.2951656 19.0730711,48.0004937 18.8181023,48.5152359 C17.6053992,51.0389781 15.4778836,52.2859547 12.8314617,52.8000563 C12.1437508,52.9336266 11.4566805,52.9775094 10.8378367,52.5402828"/>
      <path fill="#303321" d="M17.2303133,55.7894047 C16.491993,55.6215609 16.0727039,56.5610375 15.0855008,56.291975 C15.7517508,55.5651859 16.4532352,55.0876 17.203407,54.6817641 C23.7826258,51.1237328 30.9425711,49.3149281 38.1873992,47.7934438 C40.3280477,47.3440453 42.2816336,48.1108734 44.135282,49.1345922 C44.6218367,49.1829594 44.8569461,49.4773266 44.924532,49.9376156 C44.832282,50.5209047 44.6032586,51.0314828 44.1314383,51.4107328 C42.8940711,51.6717875 42.2057195,50.5763188 41.2127508,50.2300609 C40.3286883,49.3383109 39.3651883,48.8757797 38.1672195,49.6637484 C37.6630477,49.7146781 37.130368,49.2630375 36.6511805,49.7550375 C36.5147273,49.8114125 36.3728289,49.844725 36.2270867,49.8629828 C35.3330945,49.8665063 34.5345555,50.23935 33.7126336,50.5173813 C33.3868758,50.6490297 33.0579148,50.7729906 32.7030086,50.8031 C32.2837195,50.7845219 31.8878133,50.8921469 31.4989539,51.0391703 C30.2836883,51.382225 29.0668211,51.7137484 27.8845477,52.1596234 C27.5273992,52.2758969 27.1680086,52.3844828 26.8098992,52.4969125 C25.7967508,52.7163266 24.814993,53.0401625 23.8473289,53.4056391 C23.4059383,53.585975 22.9446883,53.7342797 22.641032,54.1413969 C22.3482664,54.5411469 22.472868,55.1154672 22.0843289,55.4735766 C20.7422195,53.9194203 19.437907,55.1920219 18.1239852,55.5293109 C17.8103992,55.5568578 17.4330711,55.369475 17.2303133,55.7894047"/>
      <path fill="#6C8474" d="M15.9709406,37.7915258 C13.9279875,36.9129086 11.8962453,36.1701039 9.58775313,36.8491664 C7.81770625,37.3699945 6.63030781,38.6015961 5.39582344,39.8197445 C4.32469844,39.9017445 3.50565938,39.5654164 3.14755,38.4645023 C3.14787031,35.7447289 3.59214375,35.3100648 7.06176875,34.2200414 C9.97501094,33.304268 14.8729094,34.9029477 15.9709406,37.7915258"/>
      <path fill="#CEE3AF" d="M30.6768719,12.838125 C31.6237156,12.4303672 32.7201453,12.5594531 33.5513563,11.7375313 C33.6048484,11.8685391 33.6586609,11.9995469 33.7121531,12.130875 C32.8578797,12.6984688 31.9289734,13.1805391 31.1627859,13.8487109 C28.2732469,16.36925 25.8110047,19.2632734 23.7523563,22.509 C23.0620828,23.5974219 22.2488094,24.6496484 20.7334109,24.6278672 C22.7680359,21.4692656 23.9169969,17.7187266 26.9964813,15.2590469 C28.0666453,14.2145078 29.4298953,13.6145625 30.6768719,12.838125"/>
      <path fill="#232C09" d="M21.9799391,55.5269406 C22.1718062,54.9782453 21.8226656,54.30655 22.3639937,53.8376125 C23.3460719,54.5708078 23.0510641,55.6541047 23.1125641,56.6297766 C23.2041734,58.0801516 23.3313375,58.1736828 24.7512828,57.7633625 C25.6126031,57.5148 26.4220328,57.0500266 27.3631109,57.1172922 C27.9966891,57.8066047 27.9861187,57.8351125 26.8227437,58.6096281 C25.8967203,58.8921437 25.4697437,59.3690891 26.0213219,60.3649406 C26.3285016,60.9194016 26.5793062,61.5292766 26.7247281,62.1420344 C27.0040406,63.3201437 27.66965,63.3681906 28.5863844,62.9242375 C29.0517984,62.9325656 29.2901109,63.1740812 29.3157359,63.63405 C29.2872281,63.9088781 29.181525,64.2042062 28.9265562,64.2689094 C27.4489547,64.6446359 27.2051969,65.6164641 27.5831656,66.9175734 C27.4114781,66.9473625 27.2401109,66.9774719 27.0687437,67.0075812 C26.6862906,66.9931672 26.5094781,66.7808 26.4937828,66.4121203 C26.2977516,65.8794406 25.9745562,65.4342062 25.55815,65.0530344 C24.7157281,64.7669953 25.6071578,64.4546906 25.5392516,64.1548781 C25.5517437,62.8496047 24.9338609,61.7333156 24.4825406,60.5676984 C23.9694,59.2422453 22.8921891,60.4053 22.1596344,60.0407844 C21.9408609,59.9155422 21.8124156,59.7223937 21.729775,59.4911281 C21.8034469,58.0096828 20.9828062,57.6474094 19.6768922,57.7768156 C19.0100016,57.8431203 18.326775,57.8248625 17.6512359,57.7393391 C17.1371344,57.5676516 16.5237359,57.4350422 17.2348297,56.7495734 C18.4042906,56.4241359 17.3949859,56.1086281 17.230025,55.7892766 C17.2181734,55.3001594 17.4282984,55.1999016 17.8350953,55.4439797 C18.3395875,55.4029797 18.7386969,55.6649953 19.1496578,55.8969016 C20.1845875,56.4814719 21.1429625,56.4632141 21.9799391,55.5269406"/>
      <path fill="#1A2A14" d="M27.1513844,15.3557492 C25.4239391,16.8855617 24.2487125,18.8000695 23.298025,20.873132 C22.6574,22.2696945 21.8047281,23.5240383 20.7332828,24.6278352 C18.8645797,26.2719992 16.6531422,26.7918664 14.22165,26.6666242 C13.1066422,26.6092883 11.9865094,26.6531711 10.8686187,26.6512492 C10.5511891,26.7425383 10.1834703,26.931843 10.2235094,26.3222883 C11.4996344,26.245093 12.7760797,26.0977492 14.0515641,26.1041555 C17.3930641,26.1214523 19.8626734,24.6002883 21.6769234,21.899093 C22.6855875,20.397468 23.6122516,18.8407492 24.6199547,17.3384836 C25.2131734,16.4547414 25.9101734,15.6453117 26.8272281,15.0626633 C27.1661187,14.9050695 27.2103219,15.0735539 27.1513844,15.3557492"/>
      <path fill="#738270" d="M35.4978312,40.9721328 C38.4555969,42.9705625 41.64655,43.5775547 45.1062453,42.5845859 C45.5838312,42.583625 46.1956281,42.5429453 45.9560344,43.2764609 C45.64405,44.2316328 45.9646828,45.2774531 45.4617922,46.1865 C45.8429641,44.1694922 44.2590187,45.0602813 43.4393391,44.8194063 C42.1827531,44.3418203 40.8207844,44.608 39.5366516,44.2396406 C38.0817922,43.8222734 36.7550578,43.2136797 35.6868156,42.1355078 C35.3930891,41.8392188 34.7326047,41.4887969 35.4978312,40.9721328"/>
      <path fill="#253E0E" d="M17.2348297,56.7497016 C17.0461656,57.1065297 17.0445641,57.3650219 17.5535406,57.3544516 C17.6547594,57.6504203 17.4769859,57.8157016 17.2687828,57.9681703 C14.4067906,59.81285 12.1181578,58.5530609 9.95156406,56.6186938 C9.31125937,56.0507797 8.66967344,55.482225 8.28113437,54.6984203 C7.78561094,53.6977641 7.76863437,52.7506 8.62418906,51.9136234 C9.06878281,52.0420688 9.51305625,52.1701938 9.95732969,52.2986391 C9.54476719,54.9011781 12.6623687,57.7855922 15.2149391,57.1715531 C15.8834312,57.0107563 16.5612125,56.8896781 17.2348297,56.7497016"/>
      <path fill="#708171" d="M10.8378367,52.5402828 C14.2004773,52.4755797 16.9731023,51.3685797 18.5608914,48.1683375 C19.0301492,48.67315 19.0090086,48.6667438 18.8712742,49.1177438 C18.6374461,49.8842516 17.9100164,50.4217359 17.8827898,51.2792125 C16.1111414,53.6488844 12.7638758,54.2481891 10.8378367,52.5402828"/>
      <path fill="#040A05" d="M26.4095727,40.7763258 C26.4271898,39.6638805 26.9979867,39.4015445 27.768018,39.8400523 C29.0415805,40.5652398 29.6700336,41.8090133 30.0194945,43.187318 C30.1107836,43.5476695 30.0646586,43.9512633 29.6517758,44.1501773 C29.2879008,44.3253883 28.8974398,44.2898336 28.5848148,44.0656148 C27.4147133,43.2254352 26.6940102,42.0857633 26.4095727,40.7763258"/>
      <path fill="#060C05" d="M22.7188039,43.6026672 C23.1256008,43.1782531 23.3187492,42.2813781 24.1054367,42.6106594 C24.7787336,42.8922141 24.756632,43.7410422 24.5798195,44.2932609 C24.2668742,45.2708547 24.5490695,46.80355 22.7697336,46.7148234 C21.8475539,45.6923859 22.4020148,44.6456047 22.7188039,43.6026672"/>
      <path fill="#172317" d="M35.4978312,40.9721328 C35.1041672,41.7046875 35.8585031,41.8600391 36.1669641,42.1537656 C37.6144562,43.5327109 39.4126906,44.1009453 41.3752453,44.2694297 C42.0840969,44.3302891 42.8983312,44.0932578 43.4393391,44.8197266 C39.7845734,44.9568203 36.5116203,44.1582813 34.1835891,41.0432422 C34.6006359,40.6319609 35.0077531,40.0320156 35.4978312,40.9721328"/>
      <path fill="#C9DFB8" d="M23.1141656,40.7597336 C21.7781422,41.8013898 21.5292594,43.0739914 20.9908141,44.2162258 C20.4353922,41.8923586 20.9280328,40.9208508 23.1141656,40.7597336"/>
      <path fill="#7A9176" d="M19.8977477,20.6975047 C19.2632086,22.4470516 18.1228961,23.6245203 16.1994195,23.8903797 C17.4835523,22.8845984 18.8070836,21.9239812 19.8977477,20.6975047"/>
      <path fill="#7E907C" d="M44.8583555,49.9244508 C44.6174805,49.6608336 44.3766055,49.3972164 44.1354102,49.1342398 C44.4079961,48.3658102 44.2071602,47.3065367 45.3868711,47.0948102 C45.3782227,48.0480602 45.3695742,49.0013102 45.3606055,49.9542398 C45.1821914,50.1300914 45.013707,50.1390602 44.8583555,49.9244508"/>
      <path fill="#1A2B14" d="M17.8826617,51.2793727 C17.2859195,50.7338805 18.0437789,50.4641773 18.1334664,50.0586617 C18.2731227,49.4279664 19.164232,48.9676773 18.5607633,48.1681773 C18.9717242,47.8235211 18.4191852,46.4163883 19.7520055,47.0877633 C19.4839039,48.6432008 18.8224586,50.0234273 17.8826617,51.2793727"/>
      <path fill="#6D7D69" d="M22.7188039,43.6026672 C22.6425695,44.6417609 22.482093,45.6821359 22.7697336,46.7151438 C21.4753508,46.0364016 21.4641398,45.3358781 22.7188039,43.6026672"/>
      <path fill="#2F401F" d="M27.1513844,15.3557492 C27.0434391,15.2580539 26.9351734,15.1603586 26.8272281,15.0626633 C27.941275,14.0286945 29.1597438,13.1747414 30.6767438,12.838093 C29.74015,14.0110773 28.2478141,14.406343 27.1513844,15.3557492"/>
      <path fill="#51644A" d="M10.2234773,26.3222242 L10.8685867,26.6511852 C9.99477422,27.1169195 8.90891484,26.955482 8.09403984,27.6332633 C8.56938359,26.7754664 9.31955547,26.4192789 10.2234773,26.3222242"/>
      <path fill="#0A1908" d="M53.8490148,7.68074141 C53.4386945,7.88349922 53.3092883,8.29606172 53.1161398,8.66121797 C52.8582883,9.08627266 52.4851242,9.60101484 52.0219523,9.14937422 C51.530593,8.67050703 52.1789055,8.34731172 52.4886477,8.02443672 C52.8051164,7.49367891 53.1215852,6.96292109 53.4377336,6.43248359 C53.2336945,6.19929609 53.2622023,5.96867109 53.4454211,5.73932734 C54.1933508,5.85271797 54.0812414,6.44849922 54.1308898,6.95555391 C54.108468,7.22461641 54.0072492,7.46388984 53.8490148,7.68074141"/>
      <path fill="#132718" d="M60.2704156,24.2220312 C59.2316422,23.9417578 58.1441812,24.0266406 57.102525,23.7668672 C58.2582125,23.1749297 59.3162047,23.3094609 60.2704156,24.2220312"/>
      <path fill="#0B1A0A" d="M6.28555547,8.65593281 C6.46589141,9.74659687 6.46364922,10.8715344 6.89671172,11.9144719 C7.53893828,12.2245344 7.92011016,12.8308859 8.44638359,13.2725969 C8.79840703,13.6870812 9.41628984,13.8587687 9.55146172,14.4724875 C9.95889922,14.7780656 10.3663367,15.0836438 10.7737742,15.3892219 C10.9297664,16.6374797 10.0982352,16.0782141 9.55882891,16.0529094 C9.06202422,15.9725109 8.76573516,15.5455344 8.33427422,15.3507844 C7.89832891,15.1111906 7.45309453,14.8879328 7.07256328,14.5596125 C6.60202422,14.0775422 5.94698516,13.7601125 5.72308672,13.0557453 C5.59464141,12.5089719 5.58214922,11.9400969 5.39188359,11.4045344 C5.27208672,10.7161828 5.21026641,10.0297531 5.42903984,9.34780781 C5.50078984,9.17900313 5.61834453,9.05119844 5.77882109,8.96375313 C5.94794609,8.86125312 6.11675078,8.75843281 6.28555547,8.65593281"/>
      <path fill="#121E0C" d="M8.57921719,15.0822023 C9.03149844,15.2788742 9.34988906,15.6103977 9.55873281,16.0527492 C9.45815469,16.2362883 9.23329531,16.4579445 9.27621719,16.5972805 C9.73682656,18.0880148 9.72785781,18.1081945 8.04557656,18.0255539 C7.67049062,17.8016555 7.29508437,17.5774367 6.91967812,17.353218 C6.31268594,17.102093 5.70569375,16.8506477 5.09870156,16.5995227 C4.89145937,16.4355227 4.84629531,16.2170695 4.88505312,15.9697883 C4.96737344,15.7321164 5.13105312,15.5793273 5.36744375,15.5008508 C5.7607875,15.4130852 6.11889687,15.5399289 6.47508437,15.6811867 C7.37900625,16.1920852 7.96069375,15.5719602 8.57921719,15.0822023"/>
      <path fill="#0A2205" d="M3.1931625,27.9073547 C2.61115469,27.8372062 2.05252969,27.8977453 1.53970938,28.2087687 C1.19889688,28.2737922 0.858084375,28.338175 0.502857813,28.4057609 C0.564357813,27.5322687 1.60665469,27.8029328 1.79371719,27.14405 C1.88852969,27.0485969 1.9836625,26.9531437 2.07879531,26.8576906 C2.62813125,26.8858781 3.17746719,26.9140656 3.72712344,26.9422531 C3.54902969,27.2641672 3.37125625,27.5857609 3.1931625,27.9073547"/>
      <path fill="#4A1719" d="M41.1029797,49.9416516 C42.2509797,50.0749016 43.0267766,51.0560187 44.1379406,51.2741516 C44.9018859,51.9868469 44.4899641,53.1671984 45.1847219,53.9090422 C45.0434641,54.5125109 44.5053391,54.5105891 44.0645891,54.6076437 C42.0418156,55.0528781 40.3697844,56.0948547 38.9370266,57.5580422 C37.3059953,58.985675 36.1768937,60.7316984 35.5346672,62.8063625 C35.3863625,63.2861906 35.3360734,63.8704406 34.7390109,64.0908156 C34.2454094,64.6705812 33.8824953,65.4361281 32.9305266,65.3646984 C31.6556828,65.5524016 30.6127453,65.3528469 30.2998,63.8505812 C30.2459875,63.5924094 30.0538,63.3310344 29.8138859,63.2391047 C28.1127062,62.5866281 28.2837531,60.9866672 27.9544719,59.6381516 C27.7517141,58.8075812 27.9852219,58.2531203 28.7933703,57.8155734 C30.2850656,57.0080656 30.3046047,56.8728937 29.1367453,55.6605109 C28.3542219,54.8485187 28.3788859,54.2367219 29.2565422,53.5573391 C29.9464953,53.0230578 30.4231203,53.0797531 30.9746984,53.7998156 C32.3946437,55.6531437 33.2809484,55.8046516 35.2034641,54.6681828 C36.5884953,53.8497844 36.7592219,53.0230578 35.8056516,51.7507766 C34.9709172,50.6373703 35.0497141,50.3865656 36.4581281,49.6700266 L36.4594094,49.6693859 C37.2079797,49.5262062 37.5170812,50.1030891 37.7630812,50.5912453 C38.0375891,51.1357766 38.0372687,50.3343547 38.1890969,50.5505656 C39.7874562,51.5762062 39.7874562,51.5762062 41.1029797,49.9416516"/>
      <path fill="#352015" d="M36.4581281,49.6699945 C35.665675,50.3657133 35.2063469,50.8894242 36.413925,51.8138461 C37.5385422,52.6748461 36.9443625,54.3965258 35.4129484,55.0778305 C34.6393937,55.4215258 33.8129875,55.6640023 32.9913859,55.8786117 C31.6278156,56.2344789 31.3786125,54.972768 30.7482375,54.2658383 C30.5025578,53.9903695 30.5630969,53.2863227 29.9750031,53.511182 C29.5547531,53.6719789 29.1296984,54.0352133 28.8981125,54.4224711 C28.5848469,54.9465023 29.2014484,55.105057 29.4894094,55.3741195 C30.9654094,56.7533852 30.8725187,57.4065023 28.9836359,58.1803773 C28.3093781,58.456807 28.0928469,58.6912758 28.3244328,59.4542602 C28.7305891,60.7918852 28.3862531,62.5042758 30.3132531,62.9783383 C30.3987766,62.9994789 30.4673234,63.120557 30.5291437,63.2060805 C31.5954641,64.6740727 32.0346125,65.0699789 32.9305266,65.3646664 C31.903925,65.7999711 30.8882141,66.1324555 30.0217687,65.0562055 C29.2136203,65.0209711 29.4298312,64.2301195 29.1172062,63.8294086 C29.0957453,63.4046742 28.900675,63.1432992 28.4512766,63.1208773 C26.9893703,61.8646117 26.8221672,60.0727836 26.4781516,58.3539867 C27.4797687,57.831557 27.4797687,57.831557 27.4618312,57.3504477 C27.3980891,57.083307 27.5518391,56.9327602 27.7501125,56.8055961 C28.6229641,56.479518 28.2055969,55.9468383 28.0111672,55.398143 C27.6344797,54.3347055 26.6136437,53.5034945 26.8554797,52.2177602 C27.0700891,51.8631742 27.4233937,51.9208305 27.7552375,51.9150648 C28.5704328,53.0701117 29.3183625,53.1530727 30.1021672,51.8497211 C30.4256828,51.3119164 31.0912922,51.0892992 31.5570266,50.667768 C31.903925,50.5966586 32.2242375,50.1171508 32.6070109,50.5992211 C32.9593547,51.6351117 31.3795734,51.8984086 31.6896359,52.9134789 C32.6867687,54.684807 32.6867687,54.684807 34.9629094,53.507018 C35.7483156,53.0262289 35.1445266,52.6770883 34.8572062,52.2827836 C34.3949953,51.6485648 33.4427062,51.328893 33.5791594,50.3074164 C34.486925,49.8612211 35.3460031,49.1933695 36.4581281,49.6699945"/>
      <path fill="#C08881" d="M34.7389469,64.0909437 C35.3907828,61.457975 36.4993844,59.0876625 38.6377906,57.3096078 C39.4709234,56.9521391 40.3072594,56.7099828 41.1628141,57.2391391 C41.1935641,57.2778969 41.2627516,57.3409984 41.2525016,57.3582953 C40.5926578,58.5024516 40.4433922,59.5764594 41.3783844,60.7116469 C41.6817203,61.0800062 41.2163062,61.5992328 40.8854234,61.9422875 C40.2669,62.5845141 39.6464547,63.2283422 38.9026891,63.7328344 C37.8209937,63.7113734 36.8366734,64.1345062 35.8315328,64.4372016 C35.3411344,64.5848656 34.9154391,64.8119672 34.7389469,64.0909437"/>
      <path fill="#A6BA9C" d="M26.4938789,66.4122484 C26.6857461,66.6105219 26.877293,66.8091156 27.0688398,67.0073891 C27.0284805,67.5644125 25.9660039,67.8485297 26.503168,68.4523188 C26.9493633,68.9539281 27.5864648,68.3863344 28.1149805,68.2297016 C29.8289727,67.7216859 31.5295117,67.1691469 33.2351758,66.6339047 C34.4517227,66.1246078 33.3239023,67.5394281 33.954918,67.5115609 C33.4911055,68.2200922 32.7114648,68.2578891 31.9987695,68.407475 C30.3116836,68.7607797 28.6229961,69.0999906 26.9986914,69.6893656 C26.8103477,69.8037172 27.1594883,69.9465766 27.0211133,69.7838578 C26.9570508,69.709225 26.9640977,69.6490063 27.0470586,69.6336313 C28.5823164,69.3472719 30.0093086,68.4526391 31.6608398,68.8101078 C32.0836523,69.4638656 31.7684648,69.9619516 31.3190664,70.4312094 C29.9635039,70.6333266 28.6133867,70.8889359 27.2510977,71.0218656 C26.0640195,71.1374984 24.9179414,69.6948109 25.3381914,68.6054281 C25.6328789,67.8418031 25.8093711,66.9830453 26.4938789,66.4122484"/>
      <path fill="#32190D" d="M38.9025609,63.7327703 C39.1200531,62.7824031 39.9099437,62.2641375 40.5681859,61.7003875 C41.2084906,61.1520125 41.2747953,60.7157469 40.6834984,60.1744188 C39.3827094,58.9838172 40.0463969,58.2711219 41.2680687,57.6811063 C41.8990844,56.5763484 43.0768734,56.3229813 44.1236547,55.8944031 C44.7421781,55.6410359 45.2517953,55.9421297 45.57435,56.5074813 C45.9616078,57.1865438 46.4231781,57.8422234 46.3933891,58.6808016 C45.9516781,58.9799734 45.5099672,59.2794656 45.0685766,59.5789578 C44.9840141,59.5104109 44.9212328,59.4280906 44.8715844,59.3352 C44.5900297,58.8060438 44.8072016,57.8889891 43.9993734,57.792575 C43.1169125,57.6875125 42.4192719,58.3102 41.7501391,58.8217391 C41.3106703,59.1577469 41.5127875,59.5603797 41.7462953,59.9482781 C42.1582172,60.631825 42.719725,61.2003797 43.1784125,61.8467703 C43.1739281,62.1853406 43.2402328,62.5405672 42.9445844,62.8073875 C42.945225,62.8073875 42.8235062,62.7811219 42.8235062,62.7811219 C41.8395062,62.0239031 41.0537797,62.8025828 40.2081547,63.1187313 C39.8160922,63.4150203 39.4896937,63.8512859 38.9025609,63.7327703"/>
      <path fill="#8DA088" d="M30.7347203,72.9652016 C29.5175328,70.9424281 31.6520953,71.2768344 32.3936187,70.6301234 C32.2120016,70.3373578 31.9134703,70.4850219 31.6793219,70.4145531 C32.1485797,69.483725 33.6245797,69.6156938 33.8148453,68.3876156 C34.4266422,67.8725531 35.0877672,67.5897172 35.8831031,67.9532719 C35.3363297,69.2723188 34.5150484,70.4440219 33.9647516,71.7813266 C33.4311109,73.0782719 31.8228219,72.5536 30.7347203,72.9652016"/>
      <path fill="#DFE5C4" d="M29.1172063,63.8294406 C29.9644328,63.8361672 29.5736516,64.7554641 30.0217688,65.0562375 C30.2097922,65.7574016 30.1735969,66.2916828 29.2600656,66.4252531 C28.6892688,66.5085344 28.1412141,66.7481281 27.5829094,66.9175734 C26.4381125,64.9422063 26.4384328,64.9431672 28.7014406,64.0552609 C28.8471828,63.9982453 28.9788313,63.9053547 29.1172063,63.8294406"/>
      <path fill="#909F87" d="M33.9151672,67.3200141 C33.2194484,67.5560844 33.9283,66.4010375 33.2351438,66.6339047 C34.8748234,66.1025063 36.5141828,65.5714281 38.5862844,64.8997328 C37.7752531,65.8119828 37.2710813,66.3789359 36.7669094,66.9458891 C35.9296125,67.0906703 35.1509328,67.4856156 34.2889719,67.5282172 C34.1441906,67.4945844 34.0208703,67.4231547 33.9151672,67.3200141"/>
      <path fill="#A6BA9C" d="M34.2100148,67.2934281 C35.0678117,67.2191156 35.8186242,66.357475 36.7667492,66.9458891 C36.5220305,67.3254594 36.3320852,67.7527563 35.883007,67.9529516 C35.2209211,68.1649984 34.5585148,68.376725 33.8964289,68.5884516 C33.3746398,69.1387484 32.7846242,69.4004438 32.0447023,69.0279203 C31.6837102,68.2745453 32.367257,68.2940844 32.7417023,68.1246391 C33.2583664,67.8904906 33.9204523,67.9273266 34.2100148,67.2934281"/>
      <path fill="#A47F79" d="M40.2081867,63.1187312 C40.9887883,62.2987312 41.7130148,61.0447078 42.8235383,62.7811219 C41.9436398,62.8326922 41.1396555,63.4681922 40.2081867,63.1187312"/>
      <path fill="#8A948B" d="M42.5486141,64.0925133 C42.5358016,64.2895055 42.5229891,64.4864977 42.5101766,64.6838102 C41.8006844,65.2696617 41.1523719,64.8128961 40.3285281,64.5896383 C41.1462859,64.271568 41.7913953,63.9378023 42.5486141,64.0925133"/>
      <path fill="#8DA287" d="M31.971575,68.8843562 C32.6503172,69.026575 33.2509031,68.6620594 33.8963328,68.5880672 C34.0020359,70.2226219 32.5981063,70.0243484 31.67945,70.4144891 C31.5593328,70.4202547 31.4392156,70.4257 31.3190984,70.4311453 L31.6692,68.9090203 C31.76145,68.7994734 31.8620281,68.7863406 31.971575,68.8843562"/>
      <path fill="#F7EBB6" d="M44.7759391,41.3204406 C40.0228219,42.8765187 35.0371578,41.0385656 32.656275,36.8527219 C32.2632516,35.3254719 32.3625484,34.1351906 34.163025,33.4538859 C35.2306266,33.0496516 34.5685406,31.720675 34.8930172,30.8644797 C35.1274859,29.1626594 35.9324312,27.7042766 36.8430797,26.2888156 C37.1697984,25.7811203 37.7232984,25.2961672 37.0977281,24.6372844 C35.7591422,23.4646203 35.8190406,22.9626906 37.3229078,22.1654328 C37.7642984,21.9312844 38.3539937,21.9553078 38.6419547,21.4431281 C40.1201969,20.7470891 41.6797984,21.3713781 43.18815,21.1618937 C43.3502281,21.6532531 43.7179469,21.9008547 44.1667047,22.1385266 C48.2071266,24.2775734 50.3333609,28.3163937 49.7933141,32.8549016 C49.7113141,33.5416516 49.8407203,34.2463391 49.5985641,34.9148312 C48.400275,36.3825031 47.5418375,38.0506906 46.7442594,39.7547531 C46.1449547,40.3482922 45.1901031,40.494675 44.7759391,41.3204406"/>
      <path fill="#D5DA96" d="M49.5985961,34.9149594 C48.7629008,33.7253187 49.4544555,32.4258109 49.4637445,31.2175922 C49.4909711,27.6941547 46.9790805,23.6505297 43.6398227,22.4173266 C42.9857445,22.1758109 42.3768305,21.9269281 43.188182,21.1620219 C47.5774242,21.2552328 51.8446273,25.6774672 52.1418773,30.4571703 C52.1880023,31.2009359 52.1665414,31.9485453 52.1761508,32.6945531 C51.3170727,33.4347953 50.4576742,34.1747172 49.5985961,34.9149594"/>
      <path fill="#9F6C63" d="M46.393293,58.6806414 C45.3141602,58.1588523 45.9650352,56.021407 44.367957,56.2209617 C43.2904258,56.3558133 42.2980977,57.1706883 41.2679727,57.6812664 C40.4697539,57.001243 39.5024102,57.5204695 38.6378867,57.3097039 C40.3646914,55.303907 42.6940039,54.4473914 45.1761055,53.8833211 C45.7597148,53.7231648 46.0249336,54.1395711 46.3173789,54.5092117 C46.9073945,55.5758523 47.5493008,56.6303211 47.2309102,57.9397586 C46.9515977,58.1863992 46.6726055,58.4336805 46.393293,58.6806414"/>
      <path fill="#070806" d="M63.0706516,48.0623141 C63.7333781,49.5837984 62.4277844,50.4121266 61.7746672,51.3906813 C61.3127766,52.0825563 60.4258312,52.4909547 59.4799484,53.2164625 C59.6673312,52.2311813 60.5331359,51.2468609 59.0343937,51.0271266 C58.9892297,51.0207203 58.9072297,50.6885563 58.9706516,50.6023922 C59.89155,49.3464469 59.4805891,48.1584078 58.9360578,46.8902906 C58.5683391,46.033775 59.6279328,45.3992359 59.5965422,44.5327906 C59.5959016,44.5199781 59.6913547,44.4853844 59.7349172,44.4940328 C59.7820031,44.5036422 59.8214016,44.5523297 59.8640031,44.5840406 C60.4601047,45.5059 60.1948859,46.5449938 60.2691984,47.5382828 C60.3185266,48.2013297 60.1311437,48.9492594 61.0129641,49.4649625 C61.3742766,48.4934547 60.8127687,47.7144547 60.6548547,46.8982984 C60.5091125,46.1433219 59.9178156,45.4306266 60.4453703,44.61415 C60.2858547,44.1637906 60.2483781,43.7579547 60.8236594,43.5750563 C61.6106672,43.5654469 61.6475031,44.2509156 61.8480187,44.7368297 C62.2980578,45.8284547 62.6295812,46.9658844 63.0706516,48.0623141"/>
      <path fill="#DEE6BA" d="M43.1784445,61.8468664 C41.7761164,61.5448117 41.6066711,60.111093 40.8135773,59.250093 C40.5560461,58.9704602 40.8680305,58.7846789 41.0877648,58.6632805 C41.9631789,58.178968 42.8453195,57.7061867 43.7281008,57.2356477 C44.4859602,56.8320539 44.5769289,57.4284758 44.8008273,57.9163117 C45.0487492,58.4569992 45.2636789,58.9781477 45.0682883,59.5790539 C44.247007,60.1751555 43.6829367,60.9861867 43.1784445,61.8468664"/>
      <path fill="#2A2B1E" d="M46.3899938,51.9131109 C49.1052828,52.4009469 51.844275,52.7193375 54.5957594,52.4903141 C55.5656656,52.409275 55.7139703,52.7491266 55.6812984,53.5098687 C54.0698063,54.0691344 52.3824,54.0563219 50.71165,54.1697125 C50.4762203,54.1181422 50.2571266,54.02365 50.0479625,53.9083375 C49.3903609,53.4685484 48.6491578,53.6219781 47.9313375,53.6219781 C47.5693844,53.6466422 47.2628453,53.8634937 46.9095406,53.9227516 C46.2708375,53.3734156 45.5190641,52.8522672 46.3899938,51.9131109"/>
      <path fill="#1F1C0F" d="M46.3899937,51.9131109 C46.0219547,52.7273453 46.770525,53.2055719 46.9716812,53.8484391 C47.2887906,53.9618297 47.4383766,54.2209625 47.5536891,54.5114859 C47.6167906,54.7373063 47.6139078,54.9621656 47.5360719,55.1841422 C46.6395172,55.8036266 46.4876891,54.8314781 46.0430953,54.4839391 C45.7538531,54.2834234 45.4646109,54.0832281 45.1760094,53.8830328 C43.6766266,53.4727125 44.5014312,52.1370094 44.1378766,51.2740875 C44.2038609,50.7314781 44.3998922,50.2580563 44.8582594,49.9246109 C45.0257828,49.9345406 45.1933062,49.9444703 45.3608297,49.9544 C45.940275,50.4832359 45.7625016,51.4095797 46.3899937,51.9131109"/>
      <path fill="#2E261C" d="M63.0706516,48.0623141 C62.4684641,48.3505953 62.5293234,47.8461031 62.4136906,47.5257906 C61.9319406,46.1897672 61.6696047,44.7646969 60.8233391,43.5753766 C60.7993156,42.9427594 60.8726672,42.323275 61.6929875,42.3610719 C62.459175,42.3963062 62.3051047,42.9014391 62.3576359,43.5151578 C62.4140109,44.1737203 63.4258781,44.4575172 63.4473391,45.4690641 C63.4668781,46.3938062 63.4345266,47.2291812 63.0706516,48.0623141"/>
      <path fill="#7F957C" d="M47.3544547,54.4745539 C47.2272906,54.2660305 47.0998063,54.0571867 46.9723219,53.848343 C47.0341422,53.4508352 47.2090328,53.1747258 47.6674,53.2045148 C48.4819547,53.5952961 49.3897203,53.2455148 50.2186891,53.525468 C50.3285563,53.6298898 50.4384234,53.734632 50.5482906,53.8393742 C50.6568766,54.1574445 50.7654625,54.4758352 50.8740484,54.7942258 C50.8184333,54.7954898 50.7627403,54.7968317 50.7070078,54.7982131 C50.73664,54.8179192 50.7662253,54.8380626 50.7957641,54.8586406 C51.1682875,55.4541016 51.3691234,56.0550078 50.8441313,56.6735313 C49.9997875,57.0130625 49.1551234,57.3525938 48.3107797,57.6918047 C46.9955766,57.179625 47.5244125,56.0082422 47.3773891,55.0786953 C47.3697016,54.8772187 47.3620141,54.6760625 47.3546469,54.4745859 L47.3544547,54.4745539 Z"/>
      <path fill="#565D53" d="M60.4454344,44.614118 C60.8339734,45.9844148 61.2420516,47.349907 61.6008016,48.7278914 C61.7314891,49.2298211 62.1257938,50.0543055 61.3887547,50.1443133 C60.815075,50.2144617 59.8893719,49.892868 59.8893719,48.8691492 C59.8893719,47.4405555 59.8730359,46.0119617 59.8640672,44.5836883 C60.0578563,44.5939383 60.2516453,44.603868 60.4454344,44.614118"/>
      <path fill="#545D4F" d="M50.67258,54.6459345 C50.4222944,54.4482032 50.2526202,54.2231947 50.5483227,53.8394703 C52.2687211,53.8766266 53.936268,53.0899391 55.6813305,53.5098687 C55.6393695,53.9554234 55.8847289,54.4733687 55.3574945,54.7965641 C53.9489844,55.6531758 52.3346094,56.0144883 50.8441953,56.6736914 C51.0383047,56.0007148 50.6488047,55.4244727 50.5350938,54.8024258 C50.5757322,54.744034 50.6215956,54.6919483 50.67258,54.6459345 Z"/>
      <path fill="#2A2B1E" d="M47.3773891,55.0786953 C47.6887328,55.9499453 47.9997562,56.8205547 48.3107797,57.6918047 C48.0170531,58.0617656 47.6201859,57.9823281 47.2313266,57.9397266 C46.8351,56.7875625 46.4391937,55.6357187 46.0429672,54.4841953 C46.5545062,54.5325625 46.8107562,55.1539687 47.3773891,55.0786953"/>
      <path fill="#CECEA3" d="M44.7759391,41.3204406 C44.5485172,39.6881281 45.919775,40.0651359 46.7442594,39.7547531 C46.7455406,39.9639172 46.7468219,40.1730812 46.7484234,40.3825656 C46.2019703,40.9286984 45.5478922,41.2483703 44.7759391,41.3204406"/>
      <path fill="#2B3C22" d="M66.2498492,34.6188945 C66.233193,35.7720195 65.9484352,36.8015039 64.9259977,37.491457 C65.0518805,36.3886211 65.5989742,35.4798945 66.2498492,34.6188945"/>
      <path fill="#EDE9BA" d="M67.2589617,42.7365102 C68.0309148,41.7617992 69.0277273,42.113182 69.8663055,42.4655258 C70.6933523,42.8130648 70.3214695,43.6426742 70.2087195,44.3108461 C70.0661805,45.1590336 69.638243,45.3746039 68.8630867,44.9802992 C67.9979227,44.5405102 66.4149383,44.716682 67.1756805,42.939268 C67.2583211,42.8941039 67.285868,42.826518 67.2589617,42.7365102"/>
      <path fill="#F0EDC6" d="M35.1807859,30.7804617 C35.1769422,31.4140398 35.2102547,32.0505008 35.1580438,32.6799148 C35.1090359,33.2686492 34.9600906,33.8388055 34.2288172,33.9666102 C32.8899109,34.200118 32.5116219,34.9358758 33.0148328,36.198868 C33.07345,36.3458914 32.7842078,36.6312898 32.6564031,36.8526258 C28.9407781,31.175407 32.2681844,22.6083289 38.6417625,21.4433523 C39.1049344,22.6205008 37.9332313,21.9625789 37.6273328,22.3139617 C37.3108641,22.6775164 36.6218719,22.6531727 36.4886219,23.2816258 C36.3259031,24.0487742 37.1651219,23.9533211 37.4184891,24.3623602 C34.8146688,25.2403367 34.0135672,27.5107117 33.2342469,29.7929383 C33.0606375,30.3012742 32.9847234,30.8387586 33.0606375,31.371118 C33.140075,31.9300633 33.1064422,32.7141883 33.8338719,32.7558289 C34.4139578,32.7888211 34.3213875,32.0485789 34.4751375,31.6203211 C34.6051844,31.2577273 34.5337547,30.7131961 35.1807859,30.7804617"/>
      <path fill="#F8EBB6" d="M7.98926562,38.7851672 C9.64111719,37.2941125 11.5521016,38.0763156 13.3846094,38.1711281 C13.5767969,38.5529406 13.8503437,38.8681281 14.1463125,39.1765891 C18.0794297,43.2756281 17.6735937,47.6972219 13.0748672,50.9320578 C10.5315859,51.7331594 8.3653125,50.9826672 6.60167187,49.1437531 C4.84635937,47.3131672 4.19292187,45.12255 5.0699375,42.6234719 C5.83164062,42.8444875 5.90050781,43.6222062 6.31755469,44.2445734 C7.05267187,42.4187922 8.82015625,41.0139016 7.98926562,38.7851672"/>
      <path fill="#D9D9A3" d="M13.0748352,50.9321539 C14.0405773,49.4580758 15.7587336,48.613732 16.1203664,46.5858336 C16.6543273,43.5915523 16.0643117,41.1402008 13.6235305,39.2561227 C13.1773352,38.9117867 12.6187102,38.7250445 13.3845773,38.1709039 C16.279882,39.0584898 18.1284055,41.5815914 18.0938117,44.5986148 C18.058257,47.7040445 16.1072336,50.1662867 13.0748352,50.9321539"/>
      <path fill="#F9F6E6" d="M7.98926562,38.7851672 C9.22150781,40.0984484 8.69971875,41.3108313 7.711875,42.4264797 C7.21955469,42.9822219 7.06548437,43.6132375 6.90628906,44.2884563 C6.82172656,44.645925 6.55778906,45.0123625 6.13369531,44.9569484 C5.76725781,44.9089016 5.65739062,44.5165188 5.71216406,44.1990891 C5.82875781,43.5209875 5.13047656,43.2077219 5.0699375,42.6234719 C5.57859375,40.9908391 6.27879687,39.5039484 7.98926562,38.7851672"/>
      <path fill="#E9EEC2" d="M27.8331375,57.0722242 C27.7094969,57.1647945 27.5858562,57.2573648 27.4618953,57.3502555 C26.4019812,57.6869039 25.3180437,57.962693 24.2888797,58.3758961 C23.1485672,58.833943 22.5390125,58.8435523 22.6754656,57.305732 C22.7776453,56.1564508 22.7488172,54.9677711 22.3641219,53.8373883 C22.6821922,53.3931148 23.1223016,53.1980445 23.6607469,53.2044508 C24.5851687,53.1602477 25.5877469,52.1378102 26.4064656,53.1310992 C27.3174344,54.2361773 28.1669031,55.4687398 27.8331375,57.0722242"/>
      <path fill="#B38D84" d="M21.9799391,55.5269406 C22.0606578,56.3972297 21.6714781,56.7649484 20.7922203,56.7748781 C19.5827203,56.7876906 18.7034625,56.1470656 17.8350953,55.4436594 C18.388275,54.8235344 19.2457516,54.8148859 19.9081578,54.414175 C21.2284859,53.6149953 21.9475875,53.9301828 21.9799391,55.5269406"/>
      <path fill="#ADAB88" d="M41.1029797,49.9416516 C40.7000266,50.5364719 41.2714641,51.7498156 40.2061047,51.8167609 C39.3877063,51.8680109 38.2694953,51.8286125 38.1291984,50.5252609 C37.7768547,50.2808625 37.7835813,49.9842531 38.0033156,49.6565734 C37.8723078,48.7055656 38.6855813,48.6901906 39.0946203,48.8766125 C39.7733625,49.1860344 41.1071438,48.3801281 41.1029797,49.9416516"/>
      <path fill="#AEAB88" d="M27.8331375,57.0722242 C27.6675359,56.6314742 27.5105828,56.1875211 27.3353719,55.7509352 C26.2847469,53.1294977 26.2831453,53.1301383 23.6607469,53.2044508 C24.6575594,52.6551148 25.6681453,52.1506227 26.8555437,52.2178883 C27.4289031,53.3943961 27.9362781,54.6093414 28.5948406,55.7358805 C29.1906219,56.7554352 29.0150906,57.1542242 27.8331375,57.0722242"/>
      <path fill="#AFAF8C" d="M33.5792234,50.3073203 C34.2272156,51.0539687 34.8146687,51.8669219 35.5395359,52.5296484 C36.3979734,53.315375 35.9854109,53.5895625 35.1724578,53.8233906 C34.9178094,53.6401719 34.6692469,53.448625 34.4703328,53.2035859 C33.8434812,52.4316328 33.1852391,51.9723047 32.2649812,52.8358672 C31.9965594,53.0879531 31.6185906,53.1910938 31.2732937,52.8819922 C30.9943016,51.6981172 32.3668406,51.4799844 32.607075,50.5994453 C32.9027234,50.4069375 33.1855594,50.1731094 33.5792234,50.3073203"/>
      <path fill="#B58D87" d="M31.5570906,50.667832 C31.0055125,51.7229414 30.0375281,52.4276289 29.3068953,53.332832 C29.1512234,53.5256602 28.91195,53.6509023 28.6063719,53.8885742 C28.2921453,53.1601836 28.0237234,52.5374961 27.7553016,51.9151289 C28.937575,51.2399102 30.2572625,50.9843008 31.5570906,50.667832"/>
      <path fill="#352015" d="M38.0032195,49.6567016 C38.0451805,49.9462641 38.0871414,50.2358266 38.1291023,50.5253891 C38.0198758,50.7146937 38.124618,51.2768422 37.637743,50.8149516 C37.2402352,50.4379437 36.8516961,50.0516469 36.4593133,49.6695141 C36.9686102,48.9846859 37.4804695,48.6823109 38.0032195,49.6567016"/>
      <path fill="#A3B49A" d="M26.4780875,58.3540828 C27.4473531,59.8140672 27.531275,61.6404891 28.4515328,63.1209734 C27.5639469,64.0979266 26.8826422,64.2837078 26.4809703,62.7112938 C26.2714859,61.8912938 25.9806422,61.0639266 25.5648766,60.3316922 C24.9005484,59.1606297 25.3063844,58.612575 26.4780875,58.3540828"/>
      <path fill="#133111" d="M4.75564687,16.0304555 C4.21624062,15.4055258 3.67715469,14.7809164 3.13806875,14.156307 C3.2111,13.823182 2.529475,13.4775648 3.15408437,13.1530883 C3.67715469,13.9157523 4.28863125,14.5948148 5.04200625,15.1390258 C5.20120156,15.3084711 5.36071719,15.4775961 5.52023281,15.6464008 C5.36552187,15.7838148 5.21081094,15.9215492 5.05642031,16.0589633 C4.95520156,16.0580023 4.85526406,16.048393 4.75564687,16.0304555"/>
      <path fill="#EAE9C1" d="M31.2732297,52.8818641 C31.4750266,52.8235672 31.7069328,52.8107547 31.8741359,52.7005672 C33.65155,51.5256609 34.1461125,51.6896609 35.1723938,53.8232625 C35.0420266,53.9126297 34.9193469,54.0167313 34.7800109,54.0888016 C32.5115578,55.2569813 32.5112375,55.2560203 31.2732297,52.8818641"/>
      <path fill="#C4DDB5" d="M31.971575,68.8843562 C31.8703563,68.8901219 31.7694578,68.8981297 31.6688797,68.9087 C29.9513641,69.2357391 28.2335281,69.5618172 26.5156922,69.8885359 C28.8546141,68.5358562 31.5240984,68.3747391 33.9149109,67.3196297 C34.0126063,67.3026531 34.1109422,67.2933641 34.2099188,67.2930437 C34.1067781,68.7280437 32.4296219,67.9487234 31.971575,68.8843562"/>
      <path fill="#FDFCF2" d="M35.1807859,30.7804617 C34.5859656,31.2657352 35.0219109,32.001493 34.7454812,32.5697273 C34.5539344,32.9624305 34.3595047,33.3512898 33.8889656,33.430407 C33.355325,33.5204148 33.1775516,33.0668523 32.9558953,32.7221961 C32.4927234,32.001493 32.5087391,31.166118 32.658325,30.4044148 C33.0394969,28.4646023 33.9117078,26.7198602 35.1202469,25.1573758 C35.6964891,24.4123289 36.5661375,24.3799773 37.4184891,24.3623602 C38.0539891,24.7095789 38.2708406,25.1695477 37.7490516,25.7730164 C36.4844578,27.2349227 35.7519031,28.9652508 35.1807859,30.7804617"/>
      <path fill="#0E0D06" d="M42.93805,29.496393 C43.6379328,29.614268 44.1379406,29.9345805 44.1670891,30.7145414 C44.1943156,31.438768 43.7513234,31.8356352 43.1049328,31.8667055 C42.3791047,31.9022602 41.8912688,31.5047523 41.8826203,30.7135805 C41.8749328,30.0146586 42.3063938,29.669682 42.93805,29.496393"/>
      <path fill="#3E4C3B" d="M50.218593,53.5253078 C49.3213977,53.788925 48.4636008,53.7392766 47.6673039,53.2040344 C48.5177336,53.3116594 49.4360695,52.8776359 50.218593,53.5253078"/>
      <path fill="#332C1F" d="M10.3329602,42.7887531 C10.7922883,42.8345578 11.1561633,43.1420578 11.0847336,43.6942766 C11.0197102,44.2003703 10.6574367,44.5623234 10.0895227,44.4729563 C9.63884297,44.4021672 9.30956172,44.0997922 9.31500703,43.6145188 C9.32173359,43.0456438 9.66190547,42.7656906 10.3329602,42.7887531"/>
    </g>
  </g>
</svg>
