<svg xmlns="http://www.w3.org/2000/svg" xmlns:xlink="http://www.w3.org/1999/xlink" width="96" height="96" viewBox="0 0 96 96">
  <defs>
    <rect id="electron-xiami-a" width="82" height="82" x="7" y="7" rx="18"/>
    <filter id="electron-xiami-b" width="117.1%" height="117.1%" x="-8.5%" y="-6.1%" filterUnits="objectBoundingBox">
      <feOffset dy="2" in="SourceAlpha" result="shadowOffsetOuter1"/>
      <feGaussianBlur in="shadowOffsetOuter1" result="shadowBlurOuter1" stdDeviation="2"/>
      <feColorMatrix in="shadowBlurOuter1" values="0 0 0 0 0   0 0 0 0 0   0 0 0 0 0  0 0 0 0.2 0"/>
    </filter>
  </defs>
  <g fill="none" fill-rule="evenodd">
    <mask id="electron-xiami-c" fill="#fff">
      <use xlink:href="#electron-xiami-a"/>
    </mask>
    <use fill="#000" filter="url(#electron-xiami-b)" xlink:href="#electron-xiami-a"/>
    <use fill="#FE4110" xlink:href="#electron-xiami-a"/>
    <g fill="#FEFAF9" mask="url(#electron-xiami-c)">
      <path d="M9.09176184 31.0213218C9.09176184 28.0373229 9.09303628 25.0533239 9.08985019 22.069325 9.08963778 21.7384802 9.18755697 21.3907946 8.63253999 21.3328115 6.68668827 21.1298706 5.32389112 22.3078659 5.32070503 24.2752416 5.31327082 28.7248065 5.34109601 33.1743714 5.30583661 37.6232968 5.29351706 39.1681632 6.37360177 40.7123901 8.28058318 40.6104933 8.96070732 40.5742539 9.11172801 40.3736579 9.10493102 39.7334986 9.07413214 36.8296529 9.09154944 33.9253807 9.09176184 31.0213218M15.914881 21.4093407C14.4592624 21.2334728 14.4594748 21.2334728 14.4594748 22.6581095 14.4596872 28.198695 14.4594748 33.7392805 14.4598997 39.2800792 14.4601121 40.7006656 14.4609617 40.7006656 15.9174299 40.517763 16.1071085 40.5774515 16.2831931 40.5269294 16.4548172 40.448908 17.6498135 39.9057426 18.1644734 38.9652223 18.1598004 37.6608153 18.14387 33.1965414 18.1559771 28.7320544 18.1487553 24.2677806 18.1481181 23.9252112 18.1075486 23.576673 18.0359677 23.2415646 17.8297215 22.2773821 16.946962 21.5280782 15.914881 21.4093407M9.08857575 52.638793C9.08772613 50.7206603 9.05692725 48.801888 9.10386899 46.8848211 9.12128628 46.172183 8.95454754 45.9406769 8.19519595 45.9302314 4.69453203 45.8820542 2.14884566 44.2640694.646710155 41.0671104.163486418 40.0389759.0177758752 38.9268511.0154394088 37.8025755.00630594915 33.2470635-.0162090909 28.6913383.0194751235 24.1360395.0562213682 19.4421781 3.51058077 16.0062519 8.19052302 15.9994304 8.94456446 15.9981513 9.11087839 15.7689901 9.1042938 15.0495304 9.06945921 11.2671978 9.10110771 7.48379923 9.08241598 3.7010402 9.07498177 2.19880843 9.67439161 1.06664539 11.0021418.388114985 12.3173599-.28402022 13.563971-.0505955295 14.7181854.837057814 18.1011764 3.43883713 21.4962745 6.02484162 24.8682204 8.64090354 26.1273634 9.61766329 26.3491153 11.1919476 25.466993 12.3837992 24.5827466 13.5786351 22.919395 13.8308191 21.653455 12.881985 19.5540337 11.3085534 17.4958192 9.6796967 15.4097795 8.08814534 15.1695482 7.90481636 14.9380256 7.49658962 14.6344974 7.63920251 14.2778677 7.80696985 14.4690331 8.26017614 14.4669091 8.58419946 14.4526779 10.7685856 14.4826271 12.9536112 14.4450312 15.1373578 14.4335613 15.7943577 14.6166553 15.9849346 15.2861591 15.9985777 18.8813438 16.0721224 21.4886279 17.7101456 22.9433968 21.0603761 23.3282766 21.9465372 23.4790849 22.8853522 23.4767484 23.8587011 23.4657033 28.6007397 23.4971394 33.3429915 23.464004 38.0848169 23.43363 42.4216131 19.9378514 45.885465 15.5964844 45.9489906 14.3949034 45.966684 14.4586252 45.7626772 14.4592624 47.1218697 14.4603245 49.2798224 14.4541647 51.4375618 14.465847 53.5955145 14.4673339 53.8698684 14.3095162 54.2491036 14.6168677 54.3974722 14.8813132 54.5249498 15.0580351 54.1832331 15.2600332 54.0303879 17.4163793 52.3998258 19.5672029 50.7618027 21.7263102 49.1348646 22.6462408 48.4416252 23.6492221 48.3621116 24.629476 48.9438614 25.5921001 49.5151656 26.0850946 50.3981292 25.9678464 51.5537413 25.8939291 52.2789566 25.5430343 52.8758417 24.9771847 53.3109282 21.5109305 55.9770858 18.0448888 58.6440962 14.5544203 61.2780646 13.4193225 62.1348079 12.1385141 62.2388364 10.8893541 61.5374965 9.69202131 60.8653613 9.0726453 59.8069562 9.08496485 58.3929781 9.10195733 56.4750585 9.08921297 54.5569258 9.08857575 52.638793M35.8773273 38.6010197L35.8839801 38.59636C38.8721758 36.3715702 41.8569376 34.1427561 44.8515715 31.9268621 45.3286441 31.5737847 45.1271276 31.3624043 44.7736689 31.0972256 43.1978057 29.9153589 41.6303121 28.7224785 40.0617454 27.5310807 38.726028 26.5169628 37.3973926 25.4937374 36.0535201 24.4902098 35.8829071 24.3627038 35.5451148 23.8649642 35.4991888 24.5939938 35.4599156 24.634872 35.4601302 24.6755384 35.4998326 24.7162047 35.4363088 24.865103 35.4350211 25.0135776 35.5030517 25.1616287 35.4856685 27.4016684 35.4556235 29.6417081 35.4545504 31.8817478 35.453692 33.884567 35.4850247 35.8873861 35.5021933 37.8902053 35.5017641 37.9965309 35.5015495 38.1030684 35.5011203 38.2096058 35.5013349 38.3150842 35.5015495 38.4205626 35.5017641 38.5260411 35.5517676 38.9172432 35.7082166 38.7907961 35.8773273 38.6010197L35.8773273 38.6010197zM30.0672569 31.5138442C30.0672569 27.2794574 30.0809918 23.0450707 30.0582434 18.810684 30.0520198 17.6635533 30.4747967 16.7813894 31.5149995 16.292122 32.5622844 15.7998894 33.5866063 15.936503 34.5265874 16.6507063 37.8321875 19.1622788 41.1470159 21.6624139 44.4547621 24.1710211 46.4690686 25.698552 48.4829459 27.2271418 50.4867367 28.7682282 52.5137051 30.327106 52.5061938 32.8007656 50.4532579 34.3501123 45.1855008 38.3258862 39.8894156 42.2652299 34.6392563 46.2634551 32.8822643 47.6016331 30.8621633 46.9717278 30.2041766 45.5318839 30.029486 45.1493657 30.0007286 44.7717191 30.0007286 44.3758573 29.9996556 40.0885196 30.0000848 35.8011819 30.0000848 31.5138442L30.0672569 31.5138442z" transform="translate(23 17)"/>
    </g>
  </g>
</svg>
