<svg xmlns="http://www.w3.org/2000/svg" xmlns:xlink="http://www.w3.org/1999/xlink" width="96" height="96" viewBox="0 0 96 96">
  <defs>
    <linearGradient id="向日葵客户端-c" x1="50%" x2="50%" y1="0%" y2="100%">
      <stop offset="0%" stop-color="#F64202"/>
      <stop offset="100%" stop-color="#F89826"/>
    </linearGradient>
    <rect id="向日葵客户端-b" width="78" height="78" x="9" y="9" rx="18"/>
    <filter id="向日葵客户端-a" width="117.9%" height="117.9%" x="-9%" y="-6.4%" filterUnits="objectBoundingBox">
      <feOffset dy="2" in="SourceAlpha" result="shadowOffsetOuter1"/>
      <feGaussianBlur in="shadowOffsetOuter1" result="shadowBlurOuter1" stdDeviation="2"/>
      <feColorMatrix in="shadowBlurOuter1" values="0 0 0 0 0   0 0 0 0 0   0 0 0 0 0  0 0 0 0.2 0"/>
    </filter>
  </defs>
  <g fill="none" fill-rule="evenodd">
    <use fill="#000" filter="url(#向日葵客户端-a)" xlink:href="#向日葵客户端-b"/>
    <use fill="url(#向日葵客户端-c)" xlink:href="#向日葵客户端-b"/>
    <path fill="#FFF" d="M41.9400362,25.7716217 C41.567294,25.0185968 41.3809228,24.2436462 41.3809228,23.4467698 C41.3809228,20.7049449 43.5872819,18.2226883 48,16 C52.4127181,18.2226883 54.6190772,20.7049449 54.6190772,23.4467698 C54.6190772,24.2436462 54.432706,25.0185968 54.0599638,25.7716217 C52.1242045,25.2680217 50.0934022,25 48,25 C45.9065978,25 43.8757955,25.2680217 41.9400362,25.7716217 Z M58.6076888,27.4655107 C58.8044345,26.6342269 59.1626114,25.9089497 59.6822196,25.2896792 C61.4445578,23.1893194 64.7302247,22.7060795 69.5392203,23.8399593 C71.4909011,28.3791951 71.5855724,31.6989929 69.8232342,33.7993527 C69.2690712,34.4598058 68.5642855,34.9603624 67.7088773,35.3010227 C65.3959374,31.9796009 62.2648925,29.2704482 58.6076888,27.4655107 Z M70.0900718,39.6018376 C70.8318511,38.9989863 71.6409191,38.6202947 72.517276,38.465763 C75.2173348,37.9896501 78.0449094,39.7315401 81,43.6914331 C79.5774303,48.4232576 77.5161161,51.0272263 74.8160574,51.5033392 C73.8608934,51.6717674 72.8897715,51.5626261 71.9026919,51.1759155 C71.9670988,50.4592251 72,49.7334548 72,49 C72,45.6646273 71.3196173,42.4881665 70.0900718,39.6018376 Z M70.9248802,56.1244026 C72.0274068,56.0802573 73.0125888,56.3087182 73.8804265,56.8097852 C76.2548183,58.1806977 77.3012471,61.332668 77.019713,66.2656962 C72.888529,68.9760361 69.6357411,69.6457498 67.2613493,68.2748374 C66.3339643,67.7393892 65.6091615,66.9322388 65.0869409,65.853386 C67.7471159,63.1565768 69.7735878,59.8330902 70.9248802,56.1244026 Z M61.0674347,69.1339828 C62.0713654,69.8435476 62.7601664,70.711678 63.1338378,71.738374 C64.0715583,74.3148467 62.8472057,77.4020553 59.4607797,81 C54.5540084,80.4206571 51.6317624,78.8427494 50.6940418,76.2662767 C50.3114914,75.2151846 50.2887739,74.079091 50.6258892,72.8579958 C54.4474747,72.4421339 57.9996636,71.1291225 61.0674347,69.1339828 Z M45.3741108,72.8579958 C45.7112261,74.079091 45.6885086,75.2151846 45.3059582,76.2662767 C44.3682376,78.8427494 41.4459916,80.4206571 36.5392203,81 C33.1527943,77.4020553 31.9284417,74.3148467 32.8661622,71.738374 C33.2398336,70.711678 33.9286346,69.8435476 34.9325653,69.1339828 C38.0003364,71.1291225 41.5525253,72.4421339 45.3741108,72.8579958 Z M30.9130591,65.853386 C30.3908385,66.9322388 29.6660357,67.7393892 28.7386507,68.2748374 C26.3642589,69.6457498 23.111471,68.9760361 18.980287,66.2656962 C18.6987529,61.332668 19.7451817,58.1806977 22.1195735,56.8097852 C22.9874112,56.3087182 23.9725932,56.0802573 25.0751198,56.1244026 C26.2264122,59.8330902 28.2528841,63.1565768 30.9130558,65.8533827 Z M24.0973081,51.1759155 C23.1102285,51.5626261 22.1391066,51.6717674 21.1839426,51.5033392 C18.4838839,51.0272263 16.4225697,48.4232576 15,43.6914331 C17.9550906,39.7315401 20.7826652,37.9896501 23.482724,38.465763 C24.3590809,38.6202947 25.1681489,38.9989863 25.9099282,39.6018376 C24.6803827,42.4881665 24,45.6646273 24,49 C24,49.7334548 24.0329012,50.4592251 24.0973081,51.1759155 Z M28.2911227,35.3010227 C27.4357145,34.9603624 26.7309288,34.4598058 26.1767658,33.7993527 C24.4144276,31.6989929 24.5090989,28.3791951 26.4607797,23.8399593 C31.2697753,22.7060795 34.5554422,23.1893194 36.3177804,25.2896792 C36.8373886,25.9089497 37.1955655,26.6342269 37.3923112,27.4655107 C33.7351075,29.2704482 30.6040626,31.9796009 28.2911227,35.3010227 Z M48,70 C36.4020203,70 27,60.5979797 27,49 C27,37.4020203 36.4020203,28 48,28 C59.5979797,28 69,37.4020203 69,49 C69,60.5979797 59.5979797,70 48,70 Z M63.9881002,59.7068435 L64,49.7652333 L48.0955297,58.9478586 L58.6069834,65 C60.7308113,63.6078766 62.5619557,61.8060516 63.9881002,59.7068435 Z M41.0219372,41 L41,59.3272535 L56.9045461,50.1447595 L41.0219372,41 Z"/>
  </g>
</svg>
