<?xml version="1.0" encoding="UTF-8"?>
<svg width="96px" height="96px" viewBox="0 0 96 96" version="1.1" xmlns="http://www.w3.org/2000/svg" xmlns:xlink="http://www.w3.org/1999/xlink">
    <!-- Generator: Sketch 55.2 (78181) - https://sketchapp.com -->
    <title>utools</title>
    <desc>Created with Sketch.</desc>
    <defs>
        <filter x="-14.3%" y="-14.3%" width="128.6%" height="128.6%" filterUnits="objectBoundingBox" id="filter-1">
            <feOffset dx="0" dy="2" in="SourceAlpha" result="shadowOffsetOuter1"></feOffset>
            <feGaussianBlur stdDeviation="2" in="shadowOffsetOuter1" result="shadowBlurOuter1"></feGaussianBlur>
            <feComposite in="shadowBlurOuter1" in2="SourceAlpha" operator="out" result="shadowBlurOuter1"></feComposite>
            <feColorMatrix values="0 0 0 0 0   0 0 0 0 0   0 0 0 0 0  0 0 0 0.2 0" type="matrix" in="shadowBlurOuter1" result="shadowMatrixOuter1"></feColorMatrix>
            <feMerge>
                <feMergeNode in="shadowMatrixOuter1"></feMergeNode>
                <feMergeNode in="SourceGraphic"></feMergeNode>
            </feMerge>
        </filter>
        <linearGradient x1="50%" y1="0%" x2="50%" y2="100%" id="linearGradient-2">
            <stop stop-color="#282828" offset="0%"></stop>
            <stop stop-color="#080808" offset="100%"></stop>
        </linearGradient>
    </defs>
    <g id="Page-1" stroke="none" stroke-width="1" fill="none" fill-rule="evenodd">
        <g id="utools">
            <g id="形状结合-2" filter="url(#filter-1)" transform="translate(6.000000, 6.000000)">
                <circle id="椭圆形" fill="url(#linearGradient-2)" cx="42" cy="42" r="42"></circle>
                <path d="M40.0345539,30.9983981 C36.6067094,29.218387 36.4351597,27.0790983 37.7876531,26.5159969 C38.6893154,26.1405959 44.6140753,22.757131 55.5619327,16.3656021 C57.0522314,15.515566 58.7044631,14.9344496 60.3527802,15.0059379 C61.7716996,15.0674771 63.1883672,15.6665562 64.4887799,16.3656021 L65.7042205,17.0189707 C66.0476539,17.2035857 66.5900355,17.5487472 66.7829854,17.8915241 C67.345414,18.8906825 66.7469654,20.0989899 65.7640888,20.6707355 L48.8241087,30.5248287 C46.1422287,32.0848951 43.2293863,32.6574108 40.0345539,30.9983981 Z M49.9021457,41.380561 C53.155879,39.2476602 55.0779627,40.1684918 54.880006,41.6442885 C54.7480349,42.628153 54.6674939,49.5525288 54.6383828,62.417416 C54.6172383,64.1586383 54.2837854,65.9079815 53.3923148,67.3267811 C52.624911,68.5481251 51.3973874,69.4980639 50.1426322,70.2953047 L48.9698658,71.0404518 C48.6384903,71.2509997 48.0691581,71.5566513 47.6778534,71.5551268 C46.5372413,71.5506831 45.8018045,70.4169455 45.8061969,69.2630009 L45.8819004,49.3746457 C45.8938856,46.225989 46.8695891,43.3684752 49.9021457,41.380561 Z M11.0155906,31.4433059 C10.8166527,27.5261025 12.5659443,26.3024879 13.7302767,27.2138256 C14.5064983,27.8213842 20.3936281,31.354138 31.3916661,37.8120872 C32.871614,38.7012241 34.2023594,39.8680499 34.9711441,41.3585101 C35.6329364,42.6415416 35.8323407,44.1920039 35.8874168,45.6899759 L35.938894,47.0900667 C35.9534393,47.4856748 35.930417,48.13732 35.7334596,48.4793988 C35.1593496,49.4765223 33.8211298,49.5540053 32.835527,48.9731845 L15.8485599,38.9626794 C13.1592411,37.3778503 11.2010055,35.0942324 11.0155906,31.4433059 Z M73,32.5233544 C73,35.8419022 71.5815483,37.8267233 68.9952918,39.4382855 L58.8754118,45.6355169 C57.9042275,46.2406864 57.0951358,45.9669333 56.5510162,45.2420525 C56.170118,44.7346165 56.0574129,42.8538185 56.0574129,41.5644238 C56.0574129,39.3122325 57.1685871,36.3858235 59.8033963,34.7502464 L69.3554134,28.9772011 C70.6915175,27.9936381 72.0830532,27.9629414 72.6552213,28.9772011 C72.9883829,29.5677836 73,30.8200255 73,32.5233544 Z M32.0315431,70.4721702 C29.219858,68.7629917 28.2687478,66.5106709 28.2353503,63.4378878 L28.1967847,51.4702526 C28.1842434,50.3163691 28.8328975,49.7557288 29.727305,49.6572168 C30.3534142,49.5882558 32.0049935,50.459202 33.0974507,51.1232894 C35.0056506,52.2832537 36.9127938,54.7540612 36.9415318,57.8813172 L36.9131709,69.1380372 C37.0583636,70.8032613 36.3676779,72.0257924 35.2136442,71.9995866 C34.5416742,71.9843275 33.4747118,71.3494494 32.0315431,70.4721702 Z M35.9241262,25.8924028 C33.0888447,27.5424569 30.7134519,27.2421127 28.0974396,25.6963966 L17.9540173,19.5940351 C16.9716592,19.0135919 16.8178923,18.1432276 17.1765115,17.2890142 C17.4275545,16.6910421 18.9804602,15.6535889 20.0820857,15.0124738 C22.0062998,13.8926353 25.0389373,13.4459482 27.69873,15.0237849 L37.2076625,20.8217272 C38.6881516,21.5451886 39.3810949,22.7927398 38.7886766,23.8162925 C38.4437236,24.4122862 37.3794064,25.0454706 35.9241262,25.8924028 Z" id="形状结合" fill="#FFFFFF"></path>
            </g>
        </g>
    </g>
</svg>